<?xml version="1.0" encoding="utf-8"?>
<!-- Generator: Adobe Illustrator 16.0.0, SVG Export Plug-In . SVG Version: 6.00 Build 0)  -->
<!DOCTYPE svg PUBLIC "-//W3C//DTD SVG 1.1//EN" "http://www.w3.org/Graphics/SVG/1.1/DTD/svg11.dtd">
<svg version="1.1" id="Layer_1" xmlns="http://www.w3.org/2000/svg" xmlns:xlink="http://www.w3.org/1999/xlink" x="0px" y="0px"
	 width="1299.153px" height="613.667px" viewBox="122.479 243.259 1299.153 613.667"
	 enable-background="new 122.479 243.259 1299.153 613.667" xml:space="preserve">
<g>
	<path d="M914.109,489.69c3.776-10.45,7.371-19.858,10.561-29.403c2.357-7.048,4.126-14.291,6.296-21.405
		c0.478-1.567,1.211-3.373,2.412-4.334c2.122-1.697,4.54-0.137,5.51,3.229c3.682,12.775,7.324,25.561,11.068,38.318
		c1.015,3.459,2.333,6.829,3.605,10.509c6.53-19.987,12.875-39.456,19.271-58.909c0.602-1.829,1.322-3.681,2.367-5.272
		c0.479-0.729,2.119-1.414,2.799-1.119c0.911,0.396,1.983,1.778,1.957,2.708c-0.067,2.4-0.408,4.88-1.154,7.16
		c-5.014,15.312-10.209,30.565-15.241,45.873c-1.791,5.448-3.09,11.062-5.025,16.454c-0.651,1.814-2.574,3.171-3.916,4.736
		c-1.544-1.382-3.903-2.479-4.506-4.192c-4.448-12.655-8.554-25.431-12.745-38.176c-0.606-1.842-1.08-3.726-1.848-6.402
		c-2.093,6.353-3.819,12.014-5.821,17.574c-4.011,11.139-8.11,22.247-12.365,33.294c-0.473,1.228-2.149,2.699-3.329,2.756
		c-1.229,0.059-3.042-1.178-3.699-2.352c-1.481-2.646-2.329-5.636-3.569-8.427c-9.724-21.882-19.478-43.75-29.228-65.621
		c-0.845-1.897-1.903-3.724-2.508-5.693c-0.256-0.837,0.4-1.955,0.643-2.944c0.921,0.376,2.17,0.497,2.704,1.179
		c1.884,2.404,3.648,4.924,5.233,7.534c11.401,18.771,20.655,38.598,28.767,58.977C912.735,486.713,913.199,487.656,914.109,489.69z
		"/>
	<path d="M1196.655,426.32c-13.09-0.502-25.796-0.91-38.491-1.508c-6.857-0.321-13.714-0.851-20.543-1.558
		c-1.526-0.158-2.934-1.458-4.396-2.232c1.484-0.782,2.95-2.198,4.458-2.247c11.011-0.352,22.03-0.482,33.047-0.582
		c12.317-0.11,24.636-0.242,36.949-0.03c1.925,0.033,4.293,1.476,5.504,3.016c0.499,0.635-1.061,3.982-2.458,4.85
		c-18.025,11.205-31.997,26.679-45.61,42.584c-7.418,8.668-15.042,17.161-22.777,25.964c0.811,0.136,1.6,0.376,2.39,0.386
		c21.414,0.269,42.829,0.508,64.243,0.777c1.412,0.018,3.034-0.158,4.176,0.462c1.282,0.696,3.032,2.282,2.927,3.316
		c-0.117,1.182-1.889,2.558-3.247,3.15c-1.338,0.585-3.059,0.397-4.609,0.371c-21.801-0.371-43.602-0.752-65.401-1.186
		c-2.719-0.053-5.457-0.245-8.134-0.686c-1.396-0.229-3.587-0.908-3.812-1.792c-0.373-1.47,0.036-3.699,1.012-4.853
		c3.006-3.559,6.561-6.65,9.68-10.122c11.439-12.741,22.588-25.752,34.255-38.282
		C1182.221,439.241,1189.443,433.121,1196.655,426.32z"/>
	<path d="M449.855,484.992c4.41-5.194,6.718-10.694,8.249-16.644c2.243-8.709,2.472-17.468,0.504-26.188
		c-2.285-10.125-9.586-14.994-19.185-16.77c-5.231-0.969-10.591-1.242-16.311-1.875c4.634-4.724,10.146-5.339,15.878-4.361
		c14.498,2.469,25.769,9.632,26.937,29.941c0.975,16.937-1.831,27.238-11.485,40.827c2.686,1.45,3.269,5.96,7.927,4.593
		c3.028-0.888,6.268-1.056,9.442-1.549c-6.765,10.249-11.607,15.26-22.692,2.606c-5.053,1.274-9.785,3.262-14.611,3.535
		c-15.278,0.863-28.68-9.669-33.006-25.35c-3.752-13.6-2.772-26.954,2.751-39.893c2.83-6.635,7.08-12.211,14.091-14.958
		c1.615-0.632,3.497-0.589,5.255-0.858c0.137,0.348,0.271,0.693,0.408,1.041c-0.571,0.626-1.03,1.447-1.729,1.849
		c-10.77,6.178-14.685,16.48-16.596,27.859c-1.343,7.979-0.685,15.952,1.511,23.729c4.189,14.836,18.771,23.685,32.116,19.568
		c1.659-0.511,3.211-1.374,4.678-2.016c-1.741-2.976-3.615-5.512-4.699-8.348c-0.473-1.233,0.675-3.087,1.09-4.659
		c1.536,0.508,3.434,0.619,4.524,1.615C446.716,480.348,448.01,482.571,449.855,484.992z"/>
	<path d="M502.989,469.21c0,8.583,0.024,17.594-0.024,26.606c-0.008,1.482-0.057,3.077-0.6,4.411
		c-0.453,1.112-1.656,1.92-2.528,2.862c-0.912-1.064-2.115-2.002-2.646-3.23c-0.463-1.072-0.205-2.471-0.206-3.727
		c-0.006-22.878-0.005-45.757-0.005-68.636c0-1.361,0-2.722,0-4.048c-2.383-0.406-4.474-0.657-6.501-1.165
		c-0.682-0.172-1.201-0.994-1.794-1.519c0.563-0.563,1.05-1.484,1.704-1.625c2.43-0.521,4.917-1.097,7.38-1.09
		c9.253,0.024,18.521-0.004,27.75,0.538c5.308,0.312,9.273,3.618,11.997,8.146c4.255,7.072,6.435,14.728,5.415,23.009
		c-0.939,7.624-5.521,12.715-12.167,16.114c-1.549,0.792-3.208,1.368-5.488,2.324c3.907,5.978,7.639,11.843,11.54,17.595
		c2.321,3.426,5.016,6.599,7.334,10.027c1.322,1.956,3.683,4.466,0.935,6.518c-2.474,1.844-4.548-0.737-5.768-2.592
		c-6.054-9.195-12.017-18.46-17.688-27.894c-1.224-2.034-2.12-2.847-4.504-2.7C512.789,469.4,508.423,469.21,502.989,469.21z
		 M503.756,465.245c6.559-1.005,13.049-1.623,19.351-3.063c6.81-1.558,12.39-5.157,13.824-12.694
		c1.552-8.152-2.996-20.425-8.534-23.694c-0.855-0.505-1.796-1.091-2.741-1.184c-7.913-0.777-15.837-1.45-23.778-2.156
		C502.54,437.539,503.155,451.555,503.756,465.245z"/>
	<path d="M1002.233,463.185c-8.79-10.956-17.354-21.605-25.876-32.288c-1-1.253-2.116-2.589-2.543-4.07
		c-0.368-1.273,0.174-2.808,0.312-4.227c1.268,0.451,2.948,0.533,3.738,1.414c6.395,7.125,12.595,14.424,18.912,21.621
		c3.263,3.717,6.643,7.332,9.8,10.808c8.021-9.587,15.78-18.955,23.656-28.224c2.411-2.837,5.118-5.428,7.729-8.093
		c1.556-1.588,3.705-3.157,5.337-1.072c0.804,1.025,0.193,4.155-0.859,5.464c-4.744,5.91-9.973,11.429-14.84,17.244
		c-5.413,6.469-10.623,13.106-16.086,19.872c2.675,2.909,5.102,5.54,7.52,8.179c7.73,8.436,15.496,16.841,23.158,25.338
		c1.771,1.966,4.515,4.634,1.938,6.984c-2.355,2.146-5.338,0.319-7.457-1.994c-9.74-10.627-19.504-21.23-29.445-32.042
		c-10.275,11.053-17.747,24.43-29.244,34.193c-0.489-0.283-0.979-0.566-1.467-0.849c0.617-1.515,0.979-3.207,1.892-4.515
		c7.104-10.185,14.316-20.296,21.495-30.431C1000.683,465.389,1001.463,464.277,1002.233,463.185z"/>
	<path d="M334.985,424.072c-2.075-0.471-3.702-0.84-5.325-1.208c-0.106-0.354-0.211-0.71-0.315-1.064
		c2.525-0.995,4.983-2.583,7.586-2.867c5.908-0.647,11.893-0.988,17.833-0.852c11.451,0.261,19.414,6.627,22.906,17.733
		c3.479,11.067,0.384,21.621-8.474,28.224c-5.922,4.413-12.838,6.396-20.025,7.558c-1.923,0.312-3.853,0.594-5.872,0.904
		c0,6.704,0,13.286,0,19.868c0,2.082,0.064,4.168-0.021,6.247c-0.087,2.167-0.465,4.536-3.213,4.474
		c-2.642-0.062-3.123-2.23-3.11-4.527c0.038-6.005,0.004-12.008,0-18.012c-0.002-2.806,0-5.611,0-8.452
		c-2.905-0.782-5.347-1.439-8.921-2.403c3.279-1.219,5.581-2.074,8.444-3.14C335.987,452.603,335.49,438.45,334.985,424.072z
		 M343.068,465.182c8.435-0.618,16.33-2.15,23.005-7.478c11.597-9.255,5.583-29.275-5.558-31.856
		c-6.557-1.519-13.432-1.662-20.258-2.435C341.235,437.906,342.14,451.383,343.068,465.182z"/>
	<path d="M848.683,494.339c4.635-11.696,9.088-22.318,13.056-33.117c4.479-12.193,8.501-24.553,12.771-36.824
		c0.601-1.727,1.151-3.637,2.311-4.945c0.841-0.952,2.778-1.618,3.977-1.337c0.828,0.193,1.386,2.171,1.756,3.441
		c0.193,0.663-0.212,1.541-0.456,2.286c-8.069,24.747-17.136,49.096-28.854,72.388c-0.465,0.926-0.528,2.098-1.121,2.905
		c-1.092,1.49-2.298,3.71-3.717,3.928c-1.513,0.231-3.99-1.075-4.885-2.459c-2.625-4.063-4.898-8.396-6.905-12.808
		c-8.378-18.419-16.63-36.896-24.868-55.378c-1.332-2.992-2.665-6.052-3.374-9.22c-0.319-1.422,0.896-3.189,1.416-4.8
		c1.271,0.999,3.099,1.73,3.73,3.037c10.971,22.713,21.792,45.499,32.659,68.263C846.739,490.871,847.413,491.992,848.683,494.339z"
		/>
	<path d="M784.839,440.876c0.336-5.681,0.547-11.371,1.099-17.031c0.133-1.369,1.394-2.629,2.136-3.939
		c0.77,1.215,2.174,2.41,2.212,3.647c0.367,12.009,1.061,24.05,0.504,36.028c-0.349,7.501-1.974,15.145-4.35,22.282
		c-1.77,5.325-4.895,10.67-8.756,14.732c-9.663,10.167-26.177,8.019-33.801-3.808c-5.417-8.403-7.246-17.979-7.646-27.652
		c-0.529-12.771-0.161-25.579-0.093-38.371c0.01-1.916,0.266-3.896,0.822-5.72c0.342-1.122,1.471-2.005,2.246-2.994
		c0.514,1.042,1.44,2.069,1.479,3.129c0.378,10.608,0.205,21.252,1.006,31.824c0.69,9.099,2.095,18.188,3.896,27.137
		c0.757,3.767,2.853,7.533,5.2,10.654c5.156,6.86,15.706,7.417,22.017,1.605c6.479-5.967,8.648-14.003,9.876-22.19
		c1.454-9.687,2.137-19.489,3.154-29.241C785.506,440.938,785.173,440.907,784.839,440.876z"/>
	<path d="M576.232,497.812c4.69-0.526,9.371-1.185,14.074-1.548c6.333-0.49,12.794-0.141,19-1.257
		c8.975-1.615,13.822-8.247,13.185-16.452c-0.585-7.51-7.066-13.365-15.585-14.105c-5.461-0.474-10.911-1.111-16.38-1.446
		c-19.179-1.174-22.424-16.138-18.996-28.105c2.235-7.806,7.347-12.77,15.31-14.298c6.1-1.172,12.294-1.933,18.48-2.521
		c2.082-0.197,4.267,0.695,6.405,1.089c0.023,0.416,0.047,0.831,0.07,1.247c-1.062,0.43-2.088,1.012-3.189,1.263
		c-6.683,1.526-13.391,2.945-20.077,4.46c-11.347,2.572-13.518,13.285-11.483,21.967c1.333,5.688,5.831,8.125,11.303,8.725
		c5.953,0.651,11.931,1.084,17.9,1.573c10.718,0.878,18.82,6.752,21.47,15.604c3.375,11.277-2.323,22.501-14.186,26.258
		c-10.697,3.389-21.759,3.752-32.763,0.967c-1.562-0.395-3.03-1.162-4.541-1.757C576.23,498.922,576.231,498.368,576.232,497.812z"
		/>
	<path d="M723.138,420.971c-14.192,6.633-28.522,4.833-42.695,6.325c0.291,3.273,0.662,6.533,0.859,9.801
		c1.038,17.172,2.025,34.347,3.049,51.519c0.176,2.949,0.524,5.89,0.644,8.84c0.099,2.465,0.175,5.469-3.103,5.628
		c-3.233,0.158-3.578-2.741-3.654-5.265c-0.531-17.598-1.07-35.196-1.515-52.794c-0.146-5.758-0.023-11.523-0.023-17.416
		c-8.379,0-16.426-0.003-24.474,0.001c-2.957,0.001-5.927,0.19-8.864-0.05c-1.21-0.1-2.347-1.105-3.518-1.7
		c0.908-1.07,1.638-2.779,2.756-3.09c3.427-0.956,6.984-1.746,10.526-1.937c12.703-0.688,25.421-1.063,38.129-1.641
		c5.512-0.25,11.015-0.674,16.519-1.068C712.8,417.766,717.541,418.703,723.138,420.971z"/>
	<path d="M1067.129,502.078c8.494-10.687,16.986-21.373,25.652-32.276c-13.561-8.104-18.686-21.335-25.75-33.032
		c-2.395-3.965-4.209-8.347-5.73-12.73c-0.461-1.329,0.949-3.308,1.5-4.988c1.318,1.033,3.055,1.806,3.885,3.141
		c6.492,10.43,12.779,20.986,19.199,31.463c2.498,4.076,5.176,8.044,8.146,12.645c4.279-8.511,8.465-16.542,12.377-24.707
		c3.287-6.856,6.133-13.926,9.473-20.756c0.627-1.282,2.664-1.874,4.051-2.784c0.598,1.525,1.588,3.025,1.688,4.582
		c0.098,1.512-0.518,3.17-1.158,4.614c-9.037,20.425-17.795,41.058-32.072,58.548c-4.523,5.542-10.229,10.145-15.584,14.966
		c-1.332,1.2-3.406,1.576-5.143,2.329C1067.484,502.753,1067.307,502.416,1067.129,502.078z"/>
</g>
<g>
	<path d="M723.893,664.557c-0.973-3.715-2.331-7.38-2.843-11.157c-1.492-10.997-2.581-22.045-3.991-33.056
		c-0.271-2.111-1.125-4.196-1.981-6.175c-1.64-3.8-3.448-4.37-7.278-2.585c-5.79,2.706-8.476,7.694-7.703,14.048
		c1.033,8.498,2.261,16.988,2.841,25.521c0.293,4.318-0.653,8.721-1.705,13.126c-3.703-3.638-4.482-8.088-4.891-12.716
		c-0.967-10.937-1.997-21.87-3.042-32.8c-0.109-1.136-0.352-2.308-0.8-3.346c-0.786-1.823-1.779-3.559-2.688-5.329
		c-1.832,1.252-4.096,2.156-5.418,3.814c-6.103,7.653-10.006,15.912-6.946,26.182c1.34,4.498,1.725,9.281,2.542,13.934
		c0.021,0.126,0.054,0.252,0.062,0.379c0.167,2.716,0.531,6.162-2.658,6.79c-3.365,0.662-4.296-2.809-4.698-5.399
		c-1.49-9.594-2.764-19.221-4.025-28.849c-0.613-4.684-1.055-9.394-1.498-14.099c-0.119-1.266-0.216-2.637,0.156-3.805
		c0.302-0.953,1.321-1.677,2.023-2.502c0.863,0.769,2.267,1.404,2.496,2.328c1.036,4.185,1.739,8.451,2.734,13.573
		c1.544-3.108,2.488-5.666,3.982-7.847c1.852-2.703,3.826-5.507,6.343-7.527c4.463-3.587,8.708-2.299,11.19,2.871
		c0.59,1.228,1.047,2.52,1.515,3.657c2.574-2.105,4.776-4.438,7.437-5.984c7.154-4.156,12.844-2.525,15.678,5.176
		c2.491,6.769,4.076,13.933,5.414,21.044c1.202,6.388,1.557,12.937,2.225,19.422c0.417,4.051-0.451,7.789-2.731,11.116
		C725.053,664.428,724.473,664.494,723.893,664.557z"/>
	<path d="M435.062,678.826c0.234,0.314,0.575,0.587,0.667,0.926c3.167,11.636,12.386,12.362,21.084,11.039
		c5.162-0.783,8.317-4.426,8.655-9.174c0.593-8.304,0.165-16.679-0.342-25.142c-4.971,4.39-10.126,7.116-16.489,6.215
		c-8.965-1.269-15.012-7.479-17.396-17.467c-3.343-14.01,4.176-30.429,16.481-35.994c4.914-2.223,9.75-1.817,12.78,1.441
		c-0.975,0.448-1.811,1.175-2.631,1.159c-9.846-0.178-18.405,8.508-20.95,19.702c-1.57,6.909-1.336,13.574,2.846,19.677
		c4.912,7.169,13.87,8.039,20.027,2.01c3.104-3.039,4.721-6.285,4.422-10.935c-0.648-10.066-0.695-20.175-0.832-30.268
		c-0.024-1.747,0.715-3.506,1.102-5.26c0.467-0.008,0.934-0.018,1.401-0.026c0.439,1.063,1.181,2.101,1.27,3.193
		c1.669,20.49,3.311,40.982,4.815,61.488c0.254,3.466,0.248,7.049-0.332,10.461c-2.235,13.139-12.613,16.931-24.075,15.155
		c-3.473-0.535-7.038-1.904-10.039-3.74C431.938,689.869,431.092,683.639,435.062,678.826z"/>
	<path d="M195.013,649.412c0.292,2.093,0.965,4.647,0.888,7.179c-0.047,1.541-1.251,3.047-1.935,4.569
		c-1.334-1.139-3.307-2.029-3.865-3.469c-1.061-2.737-1.371-5.773-1.891-8.704c-4.104-23.072-8.244-46.139-12.164-69.242
		c-0.352-2.072,0.341-6.063,1.287-6.307c3.707-0.957,3.683,2.843,4.206,5.034c2.355,9.873,4.4,19.82,6.554,29.74
		c0.332,1.527,0.642,3.062,1.016,4.852c9.67-15.459,27.066-12.638,35.724-0.589c6.009,8.365,9.635,17.517,6.592,27.886
		c-3.007,10.249-16.436,17.891-26.705,15.063C201.165,654.447,198.173,651.435,195.013,649.412z M207.081,648.478
		c10.308,0.042,17.437-4.324,19.267-11.047c2.749-10.092-5.479-25.749-15.411-29.024c-2.003-0.664-4.262-0.918-6.374-0.806
		c-8.063,0.422-15.147,9.048-13.838,16.646c0.987,5.737,2.415,11.441,2.88,17.219c0.312,3.867,2.333,5.303,5.428,5.941
		C202.075,648.034,205.201,648.24,207.081,648.478z"/>
	<path d="M931.38,649.509c-4.545,5.819-6.295,5.859-15.339,0.562c-0.479,0.578-1.022,1.164-1.485,1.809
		c-7.255,10.13-19.689,11.192-28.392,2.244c-11.435-11.758-13.343-33.338,5.09-44.434c0.578-0.35,1.15-0.707,1.794-1.104
		c-0.561-0.267-0.967-0.458-1.395-0.661c0.117-0.223,0.167-0.473,0.316-0.575c9.86-6.673,18.429-4.598,23.993,5.938
		c4.523,8.566,5.698,17.678,3.241,27.029c-0.796,3.028-0.031,4.546,2.563,5.566C924.859,647.1,927.983,648.233,931.38,649.509z
		 M912.901,640.151c0.248-0.426,0.704-0.898,0.812-1.44c1.527-7.661,0.975-15.114-2.469-22.222
		c-4.223-8.714-9.989-9.972-17.564-3.863c-0.658,0.529-1.307,1.074-1.951,1.621c-12.598,10.699-10.542,27.094-1.348,36.162
		c6.368,6.28,15.387,5.154,19.583-2.395c0.495-0.891,0.092-2.485-0.302-3.611c-0.578-1.651-1.524-3.174-2.314-4.752
		c1.677,0.168,3.354,0.336,5.031,0.5C912.5,640.163,912.622,640.151,912.901,640.151z"/>
	<path d="M1212.651,645.483c-2.275,4.281-4.328,8.575-6.775,12.63c-2.626,4.348-4.838,4.771-8.677,1.458
		c-2.8-2.419-5.366-5.237-7.522-8.247c-8.391-11.701-13.193-24.893-15.371-39.057c-0.176-1.137,0.625-2.426,0.971-3.643
		c0.992,0.819,2.465,1.44,2.896,2.49c2.484,6.055,4.615,12.252,7.067,18.32c3.428,8.482,7.263,16.763,13.648,23.541
		c0.598,0.634,1.289,1.182,2.178,1.986c1.575-3.809,2.855-7.417,4.54-10.826c1.687-3.413,3.532-6.806,5.771-9.869
		c1.776-2.436,3.264-1.025,4.091,1.197c1.921,5.168,3.806,10.35,5.744,15.512c0.392,1.043,0.956,2.021,1.804,3.786
		c1.572-3.79,3.131-6.883,4.153-10.142c3.221-10.259,6.153-20.606,9.396-30.855c0.854-2.695,2.428-5.165,3.671-7.736
		c0.593,0.1,1.185,0.198,1.776,0.298c0.146,3.038,0.873,6.183,0.338,9.096c-2.777,15.105-7.321,29.642-15.126,43
		c-0.451,0.774-0.968,1.526-1.552,2.202c-2.51,2.908-4.846,2.871-6.623-0.609C1216.664,655.342,1214.791,650.41,1212.651,645.483z"
		/>
	<path d="M495.72,619.826c2.897-3.416,5.136-6.628,7.935-9.237c5.698-5.309,11.651-4.353,14.144,3.021
		c2.456,7.261,3.654,15.036,4.617,22.685c0.717,5.693,0.307,11.548,0.132,17.324c-0.061,1.979-0.931,3.934-1.603,6.568
		c-3.09-2.991-3.379-5.964-3.597-9.071c-0.689-9.861-1.218-19.752-2.451-29.548c-0.385-3.062-2.804-5.866-4.292-8.789
		c-2.599,2.194-5.722,4.003-7.697,6.662c-5.563,7.497-7.019,16.081-5.664,25.299c0.582,3.958,0.714,8.028,0.533,12.024
		c-0.068,1.499-1.603,2.932-2.468,4.396c-1.211-1.424-3.303-2.745-3.484-4.288c-0.831-7.096-1.067-14.259-1.631-21.389
		c-1.424-18.004-2.934-36.003-4.336-54.009c-0.153-1.965-1.354-4.769,1.552-5.348c0.82-0.162,3.055,2.729,3.311,4.419
		c1.773,11.755,3.201,23.562,4.719,35.355C495.594,617.088,495.616,618.294,495.72,619.826z"/>
	<path d="M837.023,694.224c-1.127-5.975-2.859-11.909-3.27-17.932c-1.46-21.445-2.472-42.922-3.645-64.386
		c-0.038-0.688-0.162-1.432,0.036-2.06c0.57-1.809,1.284-3.572,1.942-5.354c1.305,1.394,2.609,2.786,3.729,3.981
		c2.42-1.358,5.188-3.615,8.343-4.524c5.05-1.458,9.447,0.953,13.207,4.208c10.235,8.86,14.463,27.513,9.17,39.937
		c-4.564,10.715-14.38,13.82-26.418,8.124c-0.448,12.668,3.169,25.42-1.179,37.766C838.301,694.064,837.662,694.145,837.023,694.224
		z M839.703,653.354c1.111,0.184,2.193,0.507,3.279,0.519c10.545,0.122,18.04-2.434,19.291-14.234
		c0.547-5.164-0.274-10.737-1.696-15.78c-1.769-6.275-5.266-11.809-11.854-14.455c-4.99-2.007-13.158,3.556-12.651,8.714
		C837.209,629.731,838.457,641.333,839.703,653.354z"/>
	<path d="M322.627,647.649c-3.552,14.521-16.03,16.017-25.258,9.182c-7.43-5.503-9.8-13.733-9.36-22.525
		c0.232-4.659,1.657-9.363,3.172-13.835c3.623-10.681,15.3-16.57,24.774-12.014c0.331,0.159,0.773,0.086,1.439,0.146
		c-0.502-7.697-1.061-15.309-1.46-22.926c-0.13-2.492,0.046-5.017,0.316-7.502c0.078-0.729,0.96-1.372,1.474-2.055
		c0.626,0.727,1.677,1.381,1.811,2.186c0.903,5.469,1.606,10.973,2.386,16.461c2.247,15.83,4.498,31.661,6.754,47.49
		c0.707,4.96,1.587,9.903,2.051,14.886c0.118,1.279-1.042,2.676-1.614,4.018c-1.298-1.103-3.241-1.965-3.759-3.359
		c-1.046-2.807-1.292-5.911-1.938-8.878c-0.093-0.43-0.583-0.773-0.884-1.159c-0.462-4.151-0.854-8.312-1.408-12.45
		c-1.082-8.086-2.255-16.16-3.379-24.164c-2.379,0.2-4.471,0.461-6.568,0.54c-5.459,0.202-9.854,2.589-12.473,7.23
		c-4.01,7.108-5.562,14.863-3.623,22.948c2.021,8.427,8.126,13.35,15.093,12.08C314.856,653.096,319.387,651.543,322.627,647.649z"
		/>
	<path d="M1414.465,605.271c-2.263,3.244-4.046,5.808-5.833,8.369c-8.865,12.701-17.73,25.402-26.596,38.104
		c-0.539,0.772-1.072,1.548-1.951,2.815c14.04-0.455,27.406-4.82,41.111-3.046c0.146,0.439,0.291,0.88,0.436,1.317
		c-3.838,1.501-7.568,3.842-11.532,4.343c-11.212,1.417-22.518,2.109-33.792,3.007c-1.276,0.101-2.728-0.051-3.842-0.602
		c-0.625-0.31-1.289-2.065-0.982-2.515c7.682-11.208,15.418-22.384,23.311-33.443c3.156-4.426,6.707-8.566,10.49-13.36
		c-2.248,0.163-3.865,0.441-5.467,0.37c-6.156-0.274-12.316-0.569-18.453-1.103c-0.926-0.081-1.738-1.476-2.602-2.262
		c1.012-0.657,1.977-1.792,3.041-1.896c7.949-0.771,15.91-1.562,23.885-1.849C1408.619,603.416,1411.598,604.662,1414.465,605.271z"
		/>
	<path d="M629.48,658.491c-11.09-5.904-13.646-18.114-19.605-27.512c-7.446,5.265-6.075,12.9-4.978,20.488
		c0.255,1.768,0.784,3.652,0.412,5.307c-0.356,1.582-1.726,2.934-2.649,4.386c-1.104-1.311-2.958-2.506-3.185-3.953
		c-1.024-6.544-1.75-13.144-2.286-19.749c-1.476-18.196-2.81-36.404-4.174-54.609c-0.096-1.271-0.214-2.622,0.117-3.813
		c0.293-1.06,1.197-1.949,1.832-2.914c0.656,0.842,1.754,1.617,1.896,2.539c0.948,6.163,1.797,12.348,2.482,18.547
		c1.197,10.858,2.254,21.73,3.435,33.222c6.248-8.981,6.747-20.528,15.091-27.518c0.52,0.115,1.039,0.234,1.557,0.351
		c-0.234,2.755-0.019,5.648-0.812,8.23c-1.076,3.5-3.163,6.682-4.344,10.162c-0.575,1.691-0.758,4.129,0.05,5.572
		c3.798,6.784,8.128,13.266,12.008,20.006c1.864,3.237,3.153,6.806,4.703,10.225C630.512,657.8,629.997,658.146,629.48,658.491z"/>
	<path d="M157.41,656.077c-12.302,10.599-31.454,3.771-34.306-12.597c-2.447-14.046,2.343-25.936,13.501-34.796
		c6.799-5.399,14.568-5.188,22.309-1.771c2.073,0.916,2.653,2.107,2.416,4.853c-0.479,5.552,0.226,11.221,0.62,16.828
		c0.606,8.64,1.365,17.268,2.045,25.9c0.051,0.651,0.215,1.43-0.058,1.946c-0.697,1.322-1.611,2.529-2.438,3.782
		c-1.07-0.801-2.198-1.536-3.182-2.43C157.868,657.386,157.706,656.663,157.41,656.077z M144.699,654.667
		c1.766-0.569,4.913-2.065,8.202-2.521c3.711-0.512,4.15-2.346,4.083-5.533c-0.232-11.013-0.151-22.035-0.317-33.052
		c-0.013-0.889-0.918-2.462-1.548-2.535c-5.084-0.602-10.246-1.164-14.692,2.354c-7.965,6.3-11.616,14.898-11.787,24.691
		C128.474,647.496,135.004,654.379,144.699,654.667z"/>
	<path d="M817.406,623.497c-0.961,10.998-3.41,21.191-9.726,30.237c-2.91,4.171-6.747,6.881-11.938,6.426
		c-5.609-0.491-8.999-4.219-10.68-9.297c-3.981-12.024-3.26-23.761,3.022-34.905c3.45-6.119,9.111-9.688,15.531-11.848
		c4.96-1.67,8.923,0.214,10.672,5.262C815.857,613.896,816.408,618.775,817.406,623.497z M805.783,607.491
		c-1.594,1.138-2.127,1.658-2.764,1.95c-5.078,2.329-8.255,6.405-10.313,11.406c-3.473,8.44-3.997,17.104-1.55,25.916
		c0.811,2.917,1.949,6.417,5.253,6.21c2.278-0.145,5.113-2.369,6.463-4.461c6.72-10.42,9.105-21.91,6.621-34.132
		C809.007,611.997,807.122,609.899,805.783,607.491z"/>
	<path d="M403.055,627.735c3.843-0.81,7.308-1.874,10.833-2.138c1.677-0.125,3.469,1.272,5.208,1.981
		c-1.307,1.351-2.391,3.408-3.967,3.909c-3.602,1.144-7.445,1.525-11.534,2.282c1.168,6.864,2.253,13.647,3.505,20.396
		c0.506,2.729,1.146,6.172-1.84,6.887c-3.212,0.768-4.109-2.752-4.613-5.415c-1.351-7.137-2.575-14.298-3.752-20.893
		c-2.439-0.823-4.46-1.504-6.48-2.186c1.651-1.326,3.302-2.649,5.486-4.403c-0.298-3.31-0.664-7.483-1.049-11.656
		c-0.955-10.336-0.397-20.497,4.403-29.935c4.578-9.002,15.499-12.884,24.584-8.859c1.811,0.801,3.607,2.058,4.88,3.557
		c2.853,3.356,2.227,5.903-1.84,8.573c-0.286-4.407-2.839-6.926-6.923-7.472c-5.757-0.766-11.381,0.125-14.275,5.795
		c-2.047,4.006-3.817,8.587-4.045,12.997c-0.422,8.147,0.365,16.356,0.693,24.539C402.354,626.292,402.738,626.873,403.055,627.735z
		"/>
	<path d="M746.094,615.938c3.473-3.216,6.424-6.594,9.99-9.095c4.687-3.288,9.92-2.036,12.096,3.188
		c2.268,5.45,3.882,11.297,4.87,17.125c1.441,8.513,2.233,17.15,2.967,25.765c0.315,3.689-0.214,7.453-0.36,11.183
		c-0.599,0.152-1.198,0.303-1.797,0.454c-1.262-2.827-3.155-5.549-3.661-8.507c-1.156-6.751-1.458-13.643-2.43-20.431
		c-1.024-7.151-2.058-14.334-3.786-21.332c-1.12-4.528-3.512-5.177-6.866-2.029c-3.292,3.086-5.998,6.856-8.621,10.565
		c-0.72,1.019-0.521,2.955-0.24,4.372c1.754,8.847,3.761,17.646,5.436,26.512c0.486,2.574,2.614,6.382-1.635,7.406
		c-4.312,1.039-4.613-2.948-5.131-5.932c-2.215-12.771-4.408-25.548-6.499-38.339c-0.347-2.118-0.399-4.358-0.106-6.477
		c0.175-1.271,1.278-2.418,1.964-3.618c0.869,1.037,2.095,1.949,2.525,3.146C745.521,611.867,745.715,614.029,746.094,615.938z"/>
	<path d="M381.559,650.207c-1.739,4.818-4.733,8.055-9.34,9.48c-15.396,4.77-29.556-2.078-30.521-20.135
		c-0.598-11.186,2.381-21.393,10.633-29.449c3.727-3.637,8.233-6.021,13.676-5.586c5.465,0.436,9.602,4.008,10.902,9.123
		c1.656,6.514-0.938,13.979-6.079,17.193c-5.59,3.496-11.764,3.664-18.025,2.773c-0.9-0.127-1.661-1.25-2.486-1.912
		c0.819-0.676,1.548-1.742,2.475-1.957c3.45-0.803,7.003-1.158,10.444-1.988c5.546-1.332,8.421-4.996,8.371-10.229
		c-0.056-5.721-4.547-8.979-9.792-6.701c-2.586,1.121-5.252,2.82-7.004,4.973c-6.294,7.729-8.871,16.68-6.981,26.598
		c2.397,12.594,11.305,14.279,20.727,12.381C372.845,653.908,376.897,651.886,381.559,650.207z"/>
	<path d="M1111.672,658.203c-4.902-3.778-4.14-9.936-6.116-15.58c-0.698,1.826-1.239,3.283-1.812,4.727
		c-2.114,5.33-4.917,10.007-11.269,10.902c-6.738,0.95-11.367-2.603-14.91-7.69c-4.203-6.035-5.976-13.06-6.607-20.251
		c-0.718-8.172-0.885-16.391-1.253-24.591c-0.034-0.752-0.027-1.682,0.369-2.237c0.529-0.74,1.459-1.194,2.214-1.77
		c0.496,0.663,1.354,1.292,1.425,1.999c0.321,3.197,0.355,6.42,0.609,9.623c0.783,9.846,1.575,19.729,5.45,28.951
		c1.207,2.874,3.023,5.739,5.259,7.879c4.427,4.238,9.575,3.458,11.76-2.226c2.261-5.88,3.763-12.219,4.476-18.483
		c0.782-6.864,0.176-13.878,0.433-20.817c0.049-1.348,1.282-2.653,1.97-3.978c0.833,1.189,2.2,2.288,2.417,3.582
		c2.382,14.139,4.635,28.301,6.785,42.477c0.355,2.336,0.05,4.768,0.05,7.156C1112.505,657.984,1112.088,658.092,1111.672,658.203z"
		/>
	<path d="M1281.778,630.134c2.881-6.013,5.369-11.3,7.949-16.543c0.878-1.784,1.701-3.756,3.087-5.074
		c1.021-0.973,2.919-1.025,4.425-1.488c0.33,1.545,1.27,3.274,0.867,4.597c-0.844,2.768-2.365,5.336-3.658,7.961
		c-2.063,4.186-4.012,8.438-6.316,12.487c-1.254,2.204-1.234,3.603,0.625,5.486c4.971,5.037,9.713,10.303,14.511,15.508
		c1.083,1.174,2.443,2.341,2.915,3.765c0.553,1.672,0.279,3.619,0.364,5.448c-1.796-0.411-4.133-0.246-5.292-1.335
		c-4.373-4.11-8.367-8.625-12.498-12.992c-1.828-1.934-3.648-3.877-5.681-6.037c-5.927,7.352-9.194,16.73-17.426,21.806
		c-0.425-0.251-0.849-0.499-1.273-0.75c0.509-1.512,0.807-3.14,1.563-4.517c3.334-6.068,6.566-12.219,10.316-18.029
		c1.971-3.052,1.223-4.719-0.917-7.16c-5.452-6.218-10.556-12.743-15.765-19.174c-0.75-0.926-1.645-1.941-1.855-3.036
		c-0.217-1.113,0.328-2.373,0.541-3.569c1.084,0.202,2.525,0.033,3.189,0.673c3.17,3.052,6.174,6.282,9.153,9.526
		C1274.2,621.602,1277.712,625.597,1281.778,630.134z"/>
	<path d="M980.426,654.281c5.603-0.828,11.205-1.655,16.808-2.482c4.777-0.704,9.696-0.912,14.295-2.231
		c5.896-1.691,8.981-6.168,8.829-11.135c-0.157-5.148-3.818-9.345-9.792-10.831c-4.591-1.145-9.281-1.883-13.88-3.001
		c-3.956-0.962-8.02-2.24-9.182-6.764c-1.229-4.784,1.092-8.473,4.62-11.546c3.641-3.172,7.689-5.207,12.661-4.402
		c1.271,0.207,2.456,0.945,3.681,1.439c-0.044,0.322-0.088,0.641-0.132,0.963c-1.702,0.394-3.616,0.42-5.064,1.255
		c-3.503,2.016-7.237,3.96-10.036,6.773c-2.757,2.771-1.778,5.317,2.04,6.593c2.963,0.991,6.136,1.354,9.207,2.033
		c2.961,0.655,5.964,1.194,8.86,2.073c6.919,2.101,11.685,7.536,12.211,13.529c0.693,7.901-2.353,13.961-9.414,17.448
		c-11.51,5.686-23.411,5.499-35.374,1.573C980.653,655.14,980.54,654.71,980.426,654.281z"/>
	<path d="M1349.609,646.653c-16.205-3.032-23.653-14.137-28.19-27.926c-0.897-2.727-1.031-5.785-1.02-8.688
		c0.004-0.922,1.492-2.189,2.566-2.591c0.469-0.176,2.133,1.293,2.356,2.229c2.718,11.399,9.298,20.122,18.142,27.511
		c2.408,2.011,3.996,5.002,6.964,8.839c2.515-10.693,4.767-20.078,6.913-29.485c0.758-3.33,1.106-6.76,1.961-10.062
		c0.291-1.118,1.56-1.985,2.383-2.966c0.781,1.014,2.258,2.045,2.232,3.037c-0.163,6.333-0.156,12.737-1.132,18.974
		c-4.001,25.544-14.837,47.88-32.407,66.901c-0.396,0.433-0.88,0.783-2.033,1.797
		C1335.585,678.026,1342.448,662.675,1349.609,646.653z"/>
	<path d="M1158.059,606.447c0.584,2.895,1.975,5.892,1.616,8.664c-1.755,13.585-3.937,27.114-6.082,40.646
		c-0.259,1.632-1.016,3.276-1.889,4.704c-1.872,3.065-4.971,3.611-7.495,1.056c-2.059-2.086-4.152-4.489-5.206-7.155
		c-5.545-14.028-10.769-28.187-16.088-42.307c-0.246-0.654-0.582-1.421-0.445-2.04c0.254-1.15,0.825-2.23,1.266-3.339
		c0.927,0.674,2.292,1.146,2.709,2.056c2.469,5.394,4.71,10.891,7.042,16.346c4.096,9.577,8.201,19.148,12.302,28.722
		c0.642-0.071,1.283-0.143,1.926-0.213c1.215-7.986,2.284-15.998,3.688-23.949c1.373-7.769-0.287-16.315,4.775-23.181
		C1156.804,606.452,1157.431,606.449,1158.059,606.447z"/>
	<path d="M642.981,576.273c0.516,4.851,1.047,9.698,1.542,14.551c1.783,17.461,3.467,34.932,5.37,52.381
		c0.797,7.307,4.56,12.9,11.169,16.52c-4.074,2.223-9.24,1.97-11.514-1.498c-2.515-3.834-4.983-8.26-5.576-12.684
		c-1.755-13.073-2.844-26.257-3.666-39.429c-0.535-8.583-0.197-17.226-0.135-25.841c0.01-1.385,0.622-2.768,0.955-4.152
		C641.746,576.171,642.364,576.223,642.981,576.273z"/>
	<path d="M1038.385,602.503c3.682,2.28,6.756,4.181,9.83,6.083c-0.055,0.636-0.108,1.27-0.163,1.906
		c-2.787,1.075-5.575,2.148-8.916,3.438c0.151,9.488,0.353,19.7,3.938,28.992c0.809,2.099,3.248,4.027,5.074,4.283
		c4.417,0.617,8.915,0.199,13.35,0.199c-3.363,5.284-7.354,9.572-13.564,9.041c-5.806-0.496-10.104-4.143-11.543-11.291
		c-1.842-9.148-2.723-18.671-3.67-28.097c-0.358-3.567-0.152-6.853-3.742-7.297c-0.584-0.073-1.485-1.46-1.496-2.256
		c-0.012-0.795,0.81-1.847,1.458-2.356c0.805-0.637,1.806-0.831,2.849-1.272c0.245-5.466,0.318-10.989,0.837-16.44
		c0.157-1.653,1.531-3.104,2.351-4.646c0.737,1.469,1.938,2.838,2.127,4.425C1037.751,592.629,1038.041,598.119,1038.385,602.503z"
		/>
	<path d="M282.052,652.69c-2.304,6.408-10.647,9.055-17.574,8.362c-19.393-1.936-26.676-21.751-22.513-36.208
		c2.613-9.071,6.657-16.956,16.477-19.965c1.853-0.568,4.007-0.452,5.973-0.226c0.829,0.095,1.532,1.287,2.292,1.98
		c-0.754,0.596-1.439,1.587-2.27,1.727c-13.931,2.357-20.823,24.813-13.165,36.842c3.659,5.749,8.743,8.859,15.484,8.729
		C271.865,653.833,276.962,653.125,282.052,652.69z"/>
	<path d="M975.754,610.083c-3.802,0.441-7.612,0.582-11.267,1.412c-2.643,0.599-5.249,1.838-7.575,3.273
		c-7.935,4.894-8.962,7.777-6.905,16.854c1.664,7.345,3.314,14.699,4.611,22.113c0.397,2.27-0.394,4.748-0.669,7.404
		c-4.212-1.057-5.352-3.789-5.954-6.608c-3.064-14.346-6.013-28.716-8.877-43.104c-0.214-1.074,0.554-2.343,0.866-3.521
		c1.078,0.769,2.533,1.312,3.154,2.355c1.269,2.125,2.087,4.518,3.253,7.168c4.472-6.683,10.43-10.78,17.932-12.524
		C970.096,603.565,973.518,605.125,975.754,610.083z"/>
	<g>
		<path d="M552.065,656.222c-0.63,0.688-1.608,2.731-3.011,3.084c-2.597,0.654-3.694-1.559-3.903-3.835
			c-1.053-11.473-2.01-22.952-3.019-34.43c-0.185-2.095-0.75-4.207-0.578-6.262c0.102-1.198,1.32-2.305,2.036-3.452
			c0.985,0.933,2.627,1.732,2.844,2.816c1.134,5.698,2.029,11.45,2.773,17.215C550.222,639.207,551.026,647.083,552.065,656.222z"/>
		<path d="M540.088,599.475c-1.025-1.441-2.945-2.963-2.824-4.301c0.125-1.373,2.056-3.28,3.535-3.672
			c2.219-0.583,3.986,1.206,3.648,3.477c-0.236,1.586-1.75,2.981-2.692,4.465C541.199,599.454,540.644,599.466,540.088,599.475z"/>
	</g>
	<g>
		<path d="M541.833,685.212c8.341,1.975,15.379,3.57,22.561,0.549c5.119-2.151,8.351-5.772,8.387-11.326
			c0.114-17.68-0.054-35.361-0.095-53.044c-0.008-3.138-0.038-6.279,0.153-9.408c0.089-1.483,0.672-2.935,1.033-4.4
			c0.389-0.002,0.778-0.002,1.167-0.006c0.442,1.442,1.209,2.87,1.273,4.325c0.911,20.78,2.012,41.559,2.414,62.348
			c0.149,7.659-4.043,13.51-11.369,16.697c-7.768,3.377-15.238,3.898-22.083-2.094C544.271,687.976,543.431,686.916,541.833,685.212
			z"/>
		<path d="M574.035,599.035c-1.014-2.067-2.234-3.508-1.909-4.103c0.764-1.396,2.266-2.387,3.471-3.541
			c0.854,1.033,2.618,2.421,2.381,3.031C577.41,595.882,575.901,596.978,574.035,599.035z"/>
	</g>
</g>
<g>
	<path d="M1100.373,294.161c7.35-14.287,14.404-28.073,21.539-41.82c1.227-2.363,2.693-4.615,4.201-6.812
		c1.162-1.692,2.371-1.151,2.867,0.521c0.48,1.622,0.721,3.367,0.758,5.065c0.48,21.43,0.91,42.861,1.322,64.292
		c0.021,1.212,0.107,2.637-0.463,3.59c-0.701,1.178-2.057,1.966-3.131,2.921c-0.93-1.097-2.545-2.125-2.666-3.305
		c-0.494-4.865-0.686-9.775-0.717-14.671c-0.082-13.347-0.027-26.693-0.676-40.359c-0.582,1.041-1.143,2.093-1.746,3.12
		c-6.125,10.41-12.258,20.813-18.381,31.226c-0.297,0.507-0.633,1.041-0.74,1.603c-0.684,3.543-1.525,4.006-4.484,1.734
		c-1.689-1.297-3.178-3.062-4.268-4.905c-6.949-11.781-13.764-23.642-21.133-36.355c0,2.688-0.061,4.496,0.01,6.299
		c0.676,17.492,1.381,34.982,2.055,52.474c0.064,1.711,0.316,3.523-0.133,5.118c-0.443,1.58-1.66,2.944-2.539,4.404
		c-1.145-1.137-2.438-2.165-3.373-3.455c-0.516-0.71-0.557-1.857-0.588-2.814c-0.752-22.518-1.506-45.036-2.156-67.557
		c-0.078-2.789,0.188-5.647,0.777-8.368c0.236-1.093,1.773-1.904,2.721-2.845c0.799,0.926,1.746,1.765,2.348,2.805
		c0.459,0.796,0.248,1.985,0.721,2.761C1081.672,263.819,1090.898,278.775,1100.373,294.161z"/>
	<path d="M348.263,324.674c3.688-1.335,6.448-2.335,9.203-3.333c-0.837-12.064-1.837-23.929-2.436-35.814
		c-0.629-12.511-0.929-25.04-1.244-37.564c-0.065-2.588,0.371-5.167,3.865-2.191c0.43,0.367,1.738-0.207,2.607-0.458
		c10.537-3.045,20.917-3.02,30.775,2.232c15.107,8.049,16.303,25.405,2.596,35.579c-0.281,0.208-0.518,0.477-1.048,0.97
		c1.52,0.825,3.003,1.45,4.288,2.357c7.356,5.198,10.368,12.616,9.668,21.288c-0.696,8.618-5.581,14.738-13.944,16.96
		c-13.341,3.545-26.896,5.287-40.556,1.366C351.119,325.804,350.24,325.409,348.263,324.674z M363.656,320.661
		c6.258,0,12.387,0.309,18.465-0.116c3.648-0.254,7.371-1.261,10.784-2.624c5.694-2.273,8.767-8.607,7.855-14.465
		c-1.577-10.142-9.997-17.372-21.762-15.034c-3.516,0.699-7.397-0.438-11.111-0.734c0.004-0.441,0.009-0.883,0.013-1.325
		c1.401-0.558,2.772-1.21,4.208-1.655c5.15-1.596,10.467-2.757,15.442-4.771c5.527-2.238,9.412-6.312,9.938-12.669
		c0.65-7.87-4.897-14.59-14.167-17.128c-7.562-2.07-15.231-1.961-22.939-0.867c-2.307,0.328-2.067,1.708-1.937,3.395
		c1.172,15.253,2.262,30.513,3.413,45.769C362.418,305.864,363.056,313.284,363.656,320.661z"/>
	<path d="M479.994,325.595c2.615-1.646,6.027-2.63,7.074-4.773c1.067-2.183-0.197-5.503-0.43-8.326
		c-1.165-14.138-2.392-28.27-3.458-42.415c-0.49-6.496-0.667-13.013-0.995-19.721c-1.394-0.134-2.538-0.047-3.527-0.396
		c-0.912-0.322-1.656-1.113-2.474-1.698c0.636-0.655,1.167-1.7,1.927-1.907c15.611-4.268,30.966-5.543,44.578,5.559
		c9.682,7.896,14.903,18.607,17.283,30.621c5.026,25.376-10.607,41.883-34.021,44.743c-8.223,1.005-16.408,2.018-24.462-0.933
		C481.038,326.184,480.624,325.917,479.994,325.595z M487.559,250.216c2.188,23.754,4.355,47.29,6.56,71.226
		c3.795-0.326,7.316-0.196,10.603-1.012c5.455-1.353,11.174-2.543,16.035-5.179c10.27-5.568,14.371-15.08,13.319-26.439
		c-1.124-12.155-5.798-22.933-15.085-31.22C510.023,249.59,499.085,249.292,487.559,250.216z"/>
	<path d="M1264.506,278.914c-0.367,14.541-2.625,24.589-8.559,33.543c-8.787,13.265-24.713,19.055-38.176,14.068
		c-5.789-2.146-10.541-5.685-13.764-10.883c-10.428-16.815-12.186-34.605-4.859-52.998c4.07-10.224,12.416-16.279,22.764-18.524
		c6.064-1.316,12.785-0.967,18.99,0.02c9.299,1.479,15.615,7.779,18.793,16.343C1262.33,267.58,1263.57,275.196,1264.506,278.914z
		 M1200.23,283.759c0.59,10.704,3.342,20.472,9.576,29.053c4.725,6.508,11.498,9.722,19.391,8.868
		c10.74-1.164,18.547-7.097,23.395-16.824c5.361-10.76,6.479-22.105,3.971-33.694c-3.305-15.266-11.598-22.465-27.42-24.534
		c-0.838-0.11-1.773-0.058-2.572,0.201c-11.168,3.604-20.107,9.762-23.402,21.721
		C1201.799,273.513,1201.188,278.684,1200.23,283.759z"/>
	<path d="M724.656,294.136c-7.366-0.532-13.904-1.004-20.44-1.478c-0.062-0.524-0.123-1.05-0.186-1.576
		c3.488-1.029,6.92-2.377,10.479-2.999c3.747-0.655,7.615-0.625,11.432-0.876c2.468-0.163,4.234,0.945,4.499,3.399
		c1.474,13.59-2.766,30.512-19.764,36.215c-14.033,4.708-27.764-2.173-32.641-15.9c-6.238-17.56-4.732-35.031,3.359-51.658
		c5.565-11.436,16.96-17.529,29.339-15.674c11.743,1.76,20.362,8.354,24.651,19.802c0.589,1.571,0.943,3.386,0.788,5.028
		c-0.104,1.083-1.313,2.06-2.026,3.085c-0.901-0.812-2.079-1.464-2.651-2.464c-1.812-3.169-2.874-6.906-5.159-9.646
		c-12.89-15.455-33.802-12.073-41.142,6.622c-4.903,12.488-5.709,25.425-2.603,38.463c2.602,10.921,10.116,17.347,19.66,17.405
		c9.478,0.058,18.292-7.062,20.948-17.315C724.109,301.062,724.228,297.351,724.656,294.136z"/>
	<path d="M554.107,251.345c0.583,11.104,1.137,21.678,1.703,32.481c2.582-0.434,4.769-0.836,6.967-1.155
		c1.177-0.172,2.541-0.613,3.527-0.211c1.925,0.782,3.643,2.072,5.445,3.153c-1.801,1.306-3.456,3.357-5.439,3.747
		c-3.205,0.631-6.624,0.17-9.865,0.17c0,11.041,0,21.838,0,32.563c14.803-0.487,29.202-4.892,44.273,1.54
		c-5.114,2.829-9.458,4.511-14.322,4.544c-9.206,0.063-18.413,0.086-27.619,0.121c-0.478,0.001-0.957-0.035-1.436-0.027
		c-6.657,0.119-6.935-0.07-7.096-7.001c-0.515-22.109-0.939-44.221-1.485-66.33c-0.038-1.53-0.664-3.084-1.211-4.555
		c-0.555-1.488,2.227-6.273,3.447-5.627c3.806,2.015,7.058-0.728,10.6-0.774c7.277-0.095,14.552-0.771,21.825-0.722
		c2.003,0.013,4.198,1.469,5.935,2.76c1.73,1.286,1.769,2.891-0.896,3.341c-1.867,0.316-3.746,0.69-5.629,0.758
		c-7.998,0.283-16,0.438-24,0.693C557.303,250.865,555.78,251.151,554.107,251.345z"/>
	<path d="M953.992,287.622c5.778-11.548,11.562-23.093,17.332-34.645c0.747-1.497,1.114-3.328,2.214-4.465
		c1.244-1.283,3.455-3.041,4.648-2.673c2.559,0.792,1.63,3.339,0.787,5.189c-2.684,5.891-5.252,11.854-8.34,17.531
		c-1.832,3.369-1.906,6.057-0.376,9.646c6.103,14.319,11.802,28.811,17.58,43.265c0.893,2.232,2.701,5.226-0.617,6.544
		c-3.078,1.224-4.234-1.756-5.165-4.171c-5.684-14.731-11.361-29.465-17.143-44.459c-2.468,3.724-4.654,7.904-7.679,11.352
		c-3.45,3.935-4.239,8.169-3.944,13.118c0.3,5.035,0.058,10.103,0.054,15.156c-0.001,0.723,0.06,1.452-0.021,2.165
		c-0.284,2.487-0.224,5.774-3.526,5.739c-3.529-0.037-3.035-3.413-3.06-5.847c-0.213-21.534-0.352-43.069-0.57-64.603
		c-0.03-2.879-0.617-5.767-0.489-8.63c0.072-1.548,1.114-3.053,1.718-4.577c0.81,1.314,2.186,2.566,2.337,3.952
		c1.113,10.258,2.047,20.536,2.89,30.819c0.253,3.072,0.041,6.183,0.041,9.274C953.105,287.411,953.548,287.516,953.992,287.622z"/>
	<path d="M327.012,292.296c-8.381-0.518-16.521-0.931-24.642-1.579c-2.208-0.176-3.446,0.181-4.411,2.39
		c-4.443,10.17-9.078,20.258-13.645,30.375c-0.263,0.582-0.404,1.291-0.829,1.715c-1.057,1.058-2.245,1.985-3.38,2.964
		c-0.136-1.53-0.821-3.272-0.321-4.555c4.534-11.64,9.26-23.204,13.958-34.779c5.18-12.761,10.375-25.517,15.605-38.258
		c0.677-1.647,1.309-3.475,2.494-4.707c1.219-1.268,3.042-2.449,4.697-2.6c0.842-0.076,2.362,2.055,2.784,3.431
		c4.668,15.229,9.045,30.547,13.786,45.752c3.072,9.852,6.651,19.543,9.918,29.335c0.722,2.165,2.5,5.222-0.586,6.314
		c-3.031,1.073-3.792-2.322-4.57-4.524C334.137,313.008,330.51,302.407,327.012,292.296z M325.228,285.732
		c-3.125-11.357-6.215-22.587-9.305-33.816c-0.274-0.078-0.55-0.157-0.824-0.235c-4.55,11.205-9.1,22.411-13.827,34.051
		C309.462,285.732,317.081,285.732,325.228,285.732z"/>
	<path d="M624.84,249.982c0.729,11.028,1.435,21.688,2.095,31.662c6.479,0.745,12.526,1.439,18.574,2.135
		c0.037,0.489,0.074,0.979,0.111,1.468c-2.89,1.013-5.714,2.423-8.692,2.925c-3,0.507-6.153,0.111-9.643,0.111
		c0.459,7.475,0.882,14.813,1.373,22.148c0.3,4.493,0.724,8.979,1.057,13.473c0.161,2.163-0.38,4.162-2.848,4.378
		c-2.497,0.218-3.298-1.655-3.468-3.844c-0.651-8.403-1.497-16.796-1.916-25.211c-0.792-15.826-1.336-31.665-1.991-47.497
		c-0.029-0.688,0.018-1.437-0.233-2.048c-1.388-3.381-0.95-4.589,2.793-4.854c10.022-0.71,20.064-1.168,30.104-1.562
		c3.312-0.13,5.958,1.498,8.607,5.121c-3.96,0.751-7.352,1.862-10.766,1.942c-7.164,0.171-14.341-0.203-21.512-0.346
		C627.358,249.962,626.231,249.982,624.84,249.982z"/>
	<path d="M885.831,303.405c0.706,5.582,3.799,9.815,7.208,13.934c3.366,4.067,7.8,5.31,12.692,4.552
		c4.279-0.663,5.502-4.414,5.831-8.01c0.649-7.105,1.082-14.25,1.156-21.384c0.104-10.377-0.26-20.758-0.271-31.139
		c-0.003-3.893,0.426-7.787,0.661-11.741c-6.881,0.344-13.485,0.796-20.095,0.904c-1.42,0.023-3.77-0.901-4.11-1.917
		c-0.812-2.428,1.675-2.958,3.37-3.361c7.833-1.862,15.72-3.25,23.578-0.176c0.762,0.297,1.425,1.314,1.742,2.146
		c0.31,0.812,0.132,1.816,0.148,2.736c0.32,17.757,0.749,35.514,0.876,53.273c0.033,4.557-0.556,9.188-1.459,13.665
		c-1.379,6.837-5.516,10.803-10.931,11.293c-8.961,0.812-15.997-2.603-18.733-9.278C885.464,313.95,884.183,308.847,885.831,303.405
		z"/>
	<path d="M834.969,251.133c1.192,23.122,2.385,46.249,3.593,69.688c5.756,0.091,11.981-2.805,17.454,3.453
		c-2.645,1.238-4.931,3.045-7.383,3.309c-6.006,0.647-12.095,0.816-18.138,0.665c-1.863-0.046-3.685-1.748-5.524-2.691
		c1.536-1.045,3.047-2.131,4.624-3.109c0.493-0.306,1.167-0.32,1.806-0.479c-0.542-23.828-1.081-47.495-1.623-71.348
		c-3.134-0.323-6.407-0.455-9.581-1.086c-1.315-0.262-2.418-1.594-3.616-2.438c1.206-0.931,2.332-2.52,3.632-2.674
		c4.997-0.597,10.046-0.827,15.082-1.012c3.647-0.133,7.357-0.334,10.935,0.197c1.857,0.276,3.488,2.076,5.222,3.188
		c-1.63,1.199-3.12,3.094-4.917,3.451C842.873,250.974,839.046,250.873,834.969,251.133z"/>
	<path d="M1017.269,321.193c13.167-1.123,25.444-5.523,38.667-2.262c-3.986,1.699-7.828,4.111-11.986,4.954
		c-9.213,1.867-18.58,2.995-27.897,4.32c-3.716,0.527-5.274-1.168-5.285-5.575c-0.039-16.418,0.027-32.835-0.087-49.251
		c-0.055-7.908-0.422-15.815-0.644-23.722c-0.016-0.59-0.176-1.255,0.032-1.758c0.659-1.579,1.461-3.098,2.206-4.641
		c0.664,1.444,1.729,2.833,1.936,4.339c3.097,22.63,2.682,45.425,3.055,68.183C1017.292,317.418,1017.269,319.057,1017.269,321.193z
		"/>
	<path d="M469.537,322.859c-6.759,5.737-14.367,5.969-22.188,5.004c-2.256-0.277-4.488-0.912-6.672-1.575
		c-14.864-4.509-22.693-15.056-23.966-30.038c-1.407-16.561,3.021-31.629,15.594-43.18c4.079-3.747,9.478-6.093,14.393-8.868
		c1.301-0.734,3.1-1.09,4.57-0.89c1.826,0.249,3.55,1.255,5.319,1.934c-1.441,0.845-2.783,2.003-4.337,2.488
		c-15.448,4.83-24.255,15.749-28.347,30.902c-1.946,7.208-2.37,14.546-0.619,21.905c2.895,12.157,10.978,18.961,22.901,20.837
		C453.677,322.561,461.38,322.393,469.537,322.859z"/>
	<path fill="#010101" d="M788.536,287.92c-10.865,3.672-21.824,2.12-32.707,1.944c-0.498-0.008-0.998,0-1.765,0
		c-0.042,0.797-0.123,1.554-0.112,2.313c0.137,10.084,0.309,20.17,0.412,30.255c0.013,1.35-0.118,2.754-0.509,4.028
		c-0.551,1.802-2.132,2.429-3.529,1.203c-1.134-0.997-2.334-2.598-2.416-3.997c-0.45-7.621-0.791-15.26-0.745-22.892
		c0.092-15.058,0.423-30.111,0.75-45.168c0.07-3.087,0.539-6.167,0.861-9.243c0.152-1.469,0.376-3.114,2.287-3.104
		c1.981,0.007,2.071,1.771,2.162,3.178c0.283,4.383,0.559,8.773,0.632,13.164c0.116,7.208,0.068,14.415,0.092,21.619
		c0.002,0.783,0,1.563,0,2.514c11.558,0.359,22.945-1.707,34.584-0.125c0.103-1.049,0.253-2.089,0.297-3.129
		c0.434-10.73,0.842-21.453,1.277-32.184c0.036-0.86,0.067-1.769,0.369-2.55c0.215-0.558,0.874-0.944,1.337-1.407
		c0.386,0.463,1.037,0.885,1.114,1.397c0.324,2.131,0.631,4.29,0.669,6.442c0.28,16.135,0.525,32.273,0.708,48.411
		c0.07,6.27,0.027,12.541-0.145,18.807c-0.044,1.583-0.546,3.264-1.254,4.69c-0.913,1.851-2.532,1.842-3.323-0.088
		c-0.767-1.873-1.27-3.993-1.279-6.008c-0.043-9.228,0.132-18.447,0.229-27.67C788.542,289.547,788.536,288.77,788.536,287.92"/>
	<path fill="#010101" d="M1144.193,259.157c0.48,4.451,1.049,8.895,1.424,13.36c0.596,7.057,1.139,14.124,1.562,21.197
		c0.57,9.459,1.016,18.924,1.486,28.387c0.053,1.048,0.002,2.104-0.119,3.142c-0.062,0.557-0.258,1.404-0.613,1.536
		c-0.459,0.175-1.256-0.073-1.703-0.411c-1.719-1.292-2.635-3.087-2.756-5.229c-0.439-7.85-0.826-15.7-1.279-23.549
		c-0.652-11.346-1.35-22.691-2.016-34.039c-0.355-6.1-0.715-12.194-0.988-18.297c-0.031-0.648,0.479-1.326,0.736-1.994
		c0.445,0.364,1.068,0.637,1.312,1.106c10.621,20.471,25.416,38.135,38.342,57.051c1.295,1.896,2.613,3.78,4.309,6.219
		c0-1.265-0.012-1.921,0.004-2.584c0.297-15.794,0.564-31.591,0.928-47.39c0.08-3.573,0.428-7.146,0.811-10.707
		c0.076-0.72,0.828-1.369,1.271-2.051c0.387,0.733,1.098,1.456,1.121,2.203c0.336,10.738,0.701,21.479,0.811,32.225
		c0.131,13.272,0.043,26.548,0.033,39.821c0,3.104-0.559,6.082-2.158,9.146c-2.09-1.999-2.719-4.336-2.791-6.745
		c-0.064-2.298-0.635-4.119-2.006-6.1c-9.498-13.646-18.84-27.403-28.092-41.216c-3.078-4.596-5.754-9.463-8.613-14.208
		c-0.207-0.342-0.418-0.673-0.627-1.012C1144.447,259.065,1144.32,259.111,1144.193,259.157"/>
</g>
<g>
	<path d="M624.654,856.926c3.408-4.135,6.156-7.467,8.225-9.977c-0.437-3.453-1.465-6.035-0.879-8.18
		c0.986-3.627,4.021-5.146,7.833-4.287c3.49,0.789,6.771,5.664,5.316,9.568c-1.217,3.262-4.164,5.998-6.736,8.578
		c-1.097,1.104-3.172,1.268-4.831,1.768C630.945,855.188,628.285,855.901,624.654,856.926z"/>
	<path d="M849.002,778.588c-0.368-3.926-0.847-7.893-1.042-11.872c-0.052-1.06,0.494-2.747,1.249-3.095
		c0.973-0.446,2.722-0.242,3.629,0.397c3.557,2.515,3.739,8.718,0.434,11.549C851.772,776.85,850.043,777.862,849.002,778.588z"/>
	<g>
		<path d="M819.15,774.3c1.54-3.243,2.844-6.429,4.575-9.363c0.495-0.838,2.227-0.946,3.391-1.391
			c0.311,1.113,0.995,2.273,0.862,3.333c-0.453,3.638-1.21,7.235-1.814,10.855c-0.399,2.388-2.359,3.418-4.083,1.775
			C820.83,778.316,820.277,776.387,819.15,774.3z"/>
		<path d="M811.215,771.572c0.875-2.021,1.76-4.652,3.158-6.973c0.482-0.803,2.245-0.834,3.423-1.217
			c0.292,1.082,0.862,2.176,0.82,3.246c-0.112,2.837-0.354,5.687-0.828,8.483c-0.19,1.128-1.074,2.969-1.725,3.006
			c-1.19,0.065-2.834-0.67-3.562-1.624C811.706,775.447,811.735,773.775,811.215,771.572z"/>
	</g>
	<path d="M685.092,842.213c-0.453,3.492-2.093,6.123-6.234,6.207c-3.737,0.076-7.157-3.967-6.93-8.426
		c0.189-3.723,2.352-5.75,6.148-5.746C681.904,834.25,685.139,837.868,685.092,842.213z"/>
	<g>
		<path fill="#010101" d="M724.139,839.505c-0.141,4.557-4.679,9.012-8.637,8.914c-3.61-0.09-6.191-2.964-6.077-6.77
			c0.142-4.737,4.203-8.644,8.965-8.338C722.4,833.568,723.722,836.433,724.139,839.505"/>
		<path fill="#010101" d="M722.319,788.5c0.104,5.884-3.715,9.59-8.176,9.563c-3.694-0.021-5.84-1.836-5.986-5.592
			c-0.145-3.671,4.411-7.854,8.611-7.75C720.125,784.804,722.25,786.531,722.319,788.5"/>
	</g>
	<g>
		<path fill="#010101" d="M751.477,854.011c0.844-2.945,1.239-4.328,1.432-5.003c-1.529-2.368-3.389-4.087-3.775-6.091
			c-0.765-3.954,0.774-7.807,4.854-8.649c2.304-0.477,6.002,0.821,7.526,2.625c2.787,3.298,2.6,7.742-0.543,10.931
			C758.724,850.103,755.524,851.445,751.477,854.011"/>
		<path fill="#010101" d="M757.11,784.739c3.719-0.207,5.977,1.399,6.058,5.252c0.083,4.039-4.286,7.945-8.51,7.72
			c-3.769-0.2-5.5-2.298-5.404-6.03C749.375,787.013,752.222,784.477,757.11,784.739"/>
	</g>
	<g>
		<path fill="#010101" d="M790.079,821.76c-1.306-4.724-2.274-9.508-3.984-14.157c-4.844-13.156-1.778-26.486-1.915-39.734
			c-0.017-1.555,2.64-4.256,4.478-4.45c3.647-0.384,4.549,2.349,4.544,4.403c-0.02,13.287-0.131,26.573-0.492,39.856
			c-0.126,4.623-1.049,9.235-1.609,13.853C790.761,821.607,790.419,821.683,790.079,821.76"/>
		<path fill="#010101" d="M787.578,848.421c-0.791-0.803-3.066-2.113-3.351-3.61c-0.605-3.179,3.702-6.839,7.301-6.91
			c3.865-0.075,5.764,1.462,5.981,3.998C797.773,844.99,793.432,848.375,787.578,848.421"/>
	</g>
	<g>
		<path fill="#010101" d="M895.107,834.117c-2.047-4.596-3.538-9.117-2.394-13.903c1.596-6.665,5.138-12.521,9.81-18.071
			c3.66-4.35,7.045-9.145,9.045-14.187c2.768-6.973-3.301-15.482-11.382-16.982c-5.94-1.101-10.856,1.097-14.765,4.871
			c-1.661,1.603-2.635,3.782-4.454,5.19c-1.248,0.967-3.812,1.804-5.051,1.313c-1.139-0.447-2.063-2.877-1.756-4.209
			c1.51-6.576,10.862-13.486,18.924-14.394c9.797-1.101,18.303,2.408,22.662,9.597c4.561,7.521,5.159,15.198,0.426,22.875
			c-1.174,1.905-2.27,3.944-3.925,5.516c-9.515,9.038-13.311,20.186-16.2,31.704C896.01,833.595,895.696,833.702,895.107,834.117"/>
		<path fill="#010101" d="M894.046,848.586c-3.191-0.191-5.443-1.495-5.578-4.044c-0.136-2.566,4.094-5.395,7.911-5.214
			c3.271,0.155,5.924,1.147,6.242,3.643C902.947,845.512,898.543,848.536,894.046,848.586"/>
	</g>
</g>
</svg>
