<?xml version="1.0" encoding="utf-8"?>
<!-- Generator: Adobe Illustrator 16.0.0, SVG Export Plug-In . SVG Version: 6.00 Build 0)  -->
<!DOCTYPE svg PUBLIC "-//W3C//DTD SVG 1.1//EN" "http://www.w3.org/Graphics/SVG/1.1/DTD/svg11.dtd">
<svg version="1.1" id="Layer_1" xmlns="http://www.w3.org/2000/svg" xmlns:xlink="http://www.w3.org/1999/xlink" x="0px" y="0px"
	 width="247.755px" height="42.559px" viewBox="0 0 247.755 42.559" enable-background="new 0 0 247.755 42.559"
	 xml:space="preserve">
<g>
	<path fill="#FFFFFF" d="M106.858,8.81c0.062-0.023,0.125-0.045,0.187-0.068c0.102,0.165,0.205,0.329,0.305,0.495
		c1.396,2.315,2.702,4.691,4.205,6.934c4.517,6.742,9.077,13.457,13.711,20.118c0.673,0.967,0.949,1.855,0.981,2.978
		c0.034,1.176,0.343,2.316,1.363,3.292c0.779-1.495,1.052-2.949,1.053-4.464c0.004-6.479,0.05-12.959-0.016-19.438
		c-0.054-5.244-0.232-10.486-0.396-15.728c-0.012-0.364-0.357-0.717-0.548-1.075c-0.216,0.333-0.584,0.65-0.621,1.001
		c-0.185,1.736-0.354,3.48-0.395,5.225c-0.177,7.71-0.308,15.421-0.453,23.132c-0.007,0.322-0.001,0.644-0.001,1.261
		c-0.827-1.192-1.471-2.11-2.103-3.035c-6.31-9.234-13.532-17.856-18.716-27.848c-0.119-0.229-0.422-0.362-0.64-0.54
		c-0.126,0.325-0.375,0.656-0.36,0.974c0.135,2.978,0.309,5.953,0.483,8.929c0.325,5.539,0.666,11.078,0.984,16.617
		c0.22,3.831,0.409,7.663,0.624,11.494c0.059,1.046,0.506,1.922,1.345,2.551c0.219,0.165,0.607,0.288,0.831,0.203
		c0.174-0.066,0.269-0.479,0.3-0.75c0.059-0.507,0.083-1.024,0.058-1.535c-0.23-4.619-0.447-9.239-0.725-13.856
		c-0.208-3.452-0.473-6.901-0.763-10.347C107.37,13.152,107.093,10.983,106.858,8.81z M19.675,21.238c0,0.404,0.003,0.773,0,1.143
		c-0.045,4.386-0.128,8.771-0.109,13.157c0.004,0.959,0.244,1.969,0.609,2.859c0.376,0.918,1.146,0.922,1.58,0.042
		c0.336-0.681,0.575-1.479,0.596-2.232c0.082-2.979,0.102-5.962,0.069-8.943c-0.087-7.674-0.205-15.348-0.337-23.021
		c-0.018-1.023-0.164-2.049-0.318-3.063c-0.037-0.243-0.346-0.444-0.53-0.664c-0.22,0.22-0.534,0.404-0.636,0.669
		c-0.143,0.373-0.159,0.804-0.175,1.213C20.216,7.499,20.021,12.6,19.815,17.7c-0.021,0.497-0.092,0.991-0.141,1.49
		c-5.536-0.752-10.95,0.229-16.446,0.058c0-0.452,0.001-0.824,0-1.195c-0.011-3.427,0.011-6.854-0.044-10.28
		c-0.034-2.088-0.166-4.175-0.3-6.26C2.842,0.843,2.798,0.004,1.856,0C0.947-0.004,0.841,0.779,0.768,1.477
		C0.615,2.94,0.392,4.404,0.359,5.871C0.203,13.03,0.046,20.19,0.002,27.351c-0.022,3.629,0.14,7.262,0.354,10.885
		c0.039,0.665,0.61,1.427,1.149,1.9c0.664,0.583,1.416,0.285,1.678-0.572c0.186-0.607,0.248-1.275,0.242-1.915
		c-0.049-4.796-0.13-9.592-0.196-14.388c-0.005-0.36,0.034-0.721,0.053-1.1c0.366,0,0.604-0.003,0.84,0
		C9.297,22.244,14.509,22.984,19.675,21.238z M211.28,17.521c2.339-0.378,4.681-0.462,6.968,0.348
		c1.99,0.705,3.12,2.309,3.253,4.312c0.151,2.292-0.813,3.9-2.839,4.883c-0.609,0.296-1.293,0.435-1.928,0.682
		c-1.169,0.455-2.328,0.937-3.689,1.487c1.79,1.166,3.499,1.211,4.919,0.85c2.672,2.636,5.152,5.136,7.7,7.565
		c0.79,0.752,1.818,1.131,3.079,1.007c-0.098-0.445-0.089-0.821-0.256-1.086c-0.537-0.856-1.023-1.793-1.739-2.48
		c-2.088-2.01-4.278-3.913-6.482-5.907c0.396-0.294,0.698-0.506,0.988-0.734c2.331-1.843,3.098-4.306,2.635-7.14
		c-0.439-2.697-1.944-4.653-4.562-5.606c-3.076-1.121-6.137-0.854-9.106,0.381c-0.735,0.306-1.503,0.84-1.447,1.932
		c0.344,0,0.633,0,0.862,0c0.524,6.001,1.027,11.968,1.582,17.93c0.12,1.288,0.342,2.584,0.705,3.82
		c0.113,0.387,0.848,0.804,1.296,0.803c0.283-0.001,0.729-0.724,0.806-1.173c0.099-0.582-0.096-1.215-0.169-1.826
		c-0.464-3.837-0.911-7.676-1.398-11.51C212.098,23.25,211.686,20.448,211.28,17.521z M70.312,18.273
		c-0.023,0.398-0.052,0.797-0.068,1.195c-0.258,6.263-0.517,12.524-0.767,18.787c-0.009,0.235-0.024,0.544,0.106,0.694
		c0.288,0.335,0.647,0.776,1.017,0.817c0.285,0.031,0.755-0.423,0.915-0.767c0.19-0.409,0.176-0.932,0.182-1.405
		c0.073-6.032,0.134-12.063,0.196-18.096c0.01-0.994,0.039-1.989-0.007-2.981c-0.032-0.688-0.288-0.975-1.067-0.581
		c-3.688,1.868-5.966,5.085-8.119,8.225c-0.751-0.771-1.489-1.67-2.366-2.403c-2.041-1.704-4.145-3.333-6.233-4.98
		c-0.31-0.245-0.67-0.427-1.007-0.637c-0.176,0.484-0.503,0.97-0.5,1.453c0.014,1.814,0.113,3.628,0.221,5.44
		c0.275,4.65,0.561,9.3,0.872,13.947c0.055,0.813,0.181,1.638,0.405,2.42c0.186,0.648,0.727,1.01,1.441,0.869
		c0.721-0.142,1.018-0.662,0.973-1.361c-0.043-0.682-0.142-1.36-0.214-2.04c-0.459-4.321-0.917-8.642-1.377-12.963
		c-0.149-1.397-0.308-2.794-0.462-4.192c1.794,1.505,3.372,3.116,4.953,4.724c0.903,0.918,2.015,1.391,3.285,1.505
		c0.08,0.008,0.17-0.095,0.293-0.168c-0.02-0.285-0.04-0.574-0.06-0.863C64.092,24.84,68.099,21.111,70.312,18.273z M231.333,16.896
		c-0.124,1.813-0.397,3.49-0.321,5.152c0.242,5.297,0.592,10.591,0.951,15.883c0.109,1.601,0.305,1.742,1.898,1.692
		c3.594-0.113,7.187-0.263,10.779-0.425c0.574-0.025,1.203-0.074,1.698-0.325c0.538-0.271,0.949-0.792,1.416-1.204
		c-0.495-0.424-0.983-0.857-1.491-1.266c-0.091-0.073-0.266-0.062-0.4-0.059c-2.08,0.04-4.166-0.013-6.235,0.158
		c-1.684,0.139-3.345,0.547-5.098,0.85c-0.255-3.184-0.507-6.336-0.769-9.625c2.458,0.639,4.575-0.016,6.887-0.854
		c-2.43-0.731-4.623-1.362-6.973-0.734c-0.245-3.133-0.477-6.09-0.73-9.34c2.721,0,5.456,0.027,8.191-0.011
		c1.436-0.021,2.877-0.1,4.305-0.257c1.063-0.117,1.287-0.778,0.54-1.55c-0.36-0.373-0.879-0.72-1.374-0.809
		c-0.897-0.161-1.834-0.187-2.749-0.149c-1.573,0.064-3.146,0.177-4.71,0.349c-2.037,0.225-4.071,0.496-6.094,0.825
		c-0.346,0.057-0.628,0.503-0.939,0.769c0.3,0.277,0.591,0.563,0.904,0.825C231.112,16.869,231.266,16.875,231.333,16.896z
		 M97.601,40.819c0.1-0.04,0.2-0.08,0.3-0.12c-0.121-0.416-0.213-0.843-0.365-1.247c-1.125-3.007-2.255-6.012-3.396-9.012
		c-1.431-3.769-2.949-7.506-4.272-11.311c-0.511-1.47-1.802-2.561-1.817-4.283c-0.005-0.647-0.837-0.727-1.418-0.384
		c-0.281,0.166-0.521,0.455-0.696,0.739c-0.917,1.482-1.934,2.919-2.682,4.484c-2.785,5.83-5.478,11.703-8.205,17.559
		c-0.202,0.434-0.463,0.851-0.596,1.305c-0.083,0.284,0.022,0.623,0.043,0.938c0.323-0.104,0.749-0.113,0.948-0.331
		c0.458-0.5,0.865-1.068,1.185-1.667c1.435-2.685,2.848-5.381,4.228-8.094c0.274-0.538,0.571-0.758,1.181-0.679
		c1.119,0.146,2.246,0.285,3.372,0.315c1.927,0.05,3.855,0.014,5.833,0.014C92.945,33.166,94.129,37.627,97.601,40.819z
		 M155.002,40.824c0.097-0.048,0.193-0.096,0.289-0.143c-0.121-0.417-0.217-0.844-0.37-1.248c-2.062-5.464-4.089-10.941-6.22-16.378
		c-0.929-2.369-1.454-4.935-3.146-6.966c-0.071-0.085-0.109-0.259-0.075-0.361c0.202-0.601,0.127-1.126-0.499-1.373
		c-0.704-0.277-1.196,0.149-1.545,0.695c-0.881,1.383-1.863,2.724-2.567,4.195c-2.815,5.891-5.541,11.823-8.299,17.741
		c-0.274,0.589-0.577,1.169-0.794,1.778c-0.072,0.203,0.003,0.599,0.152,0.702s0.571,0.04,0.707-0.104
		c0.44-0.472,0.882-0.974,1.187-1.537c1.478-2.739,2.939-5.487,4.338-8.267c0.353-0.701,0.746-0.939,1.497-0.831
		c1.049,0.152,2.108,0.282,3.166,0.309c1.925,0.049,3.853,0.014,5.817,0.014C150.343,33.182,151.525,37.64,155.002,40.824z
		 M202.075,36.93c0.422,0.822,0.778,1.58,1.199,2.301c0.121,0.208,0.506,0.479,0.627,0.421c0.226-0.107,0.48-0.431,0.488-0.672
		c0.045-1.323,0.054-2.649,0.011-3.974c-0.195-5.956-0.412-11.911-0.62-17.866c-0.006-0.171,0.042-0.358-0.011-0.511
		c-0.072-0.204-0.218-0.382-0.331-0.571c-0.216,0.131-0.535,0.213-0.625,0.404c-0.2,0.427-0.349,0.9-0.411,1.368
		c-0.583,4.357-0.77,8.728-0.569,13.125c0.196,4.3,0.903,3.449-2.865,6.666c-2.12,1.809-4.372,1.491-6.011-0.76
		c-1.33-1.829-2.065-3.925-2.543-6.109c-1.018-4.646-1.05-9.378-1.225-14.099c-0.021-0.54,0.195-1.365-0.636-1.354
		c-0.314,0.004-0.623,0.793-0.922,1.233c-0.053,0.078-0.045,0.199-0.057,0.301c-0.539,4.726-0.495,9.443,0.423,14.115
		c0.585,2.977,1.569,5.839,3.673,8.131c2.954,3.218,7.613,2.673,9.793-1.089C201.667,37.639,201.869,37.286,202.075,36.93z
		 M43.692,37.309c0.408,0.835,0.711,1.555,1.108,2.218c0.151,0.252,0.519,0.374,0.787,0.556c0.147-0.252,0.378-0.488,0.427-0.757
		c0.113-0.635,0.222-1.291,0.185-1.93c-0.083-1.434-0.331-2.86-0.378-4.294c-0.174-5.204-0.294-10.41-0.434-15.616
		c-0.005-0.171,0.035-0.355-0.015-0.511c-0.057-0.179-0.182-0.465-0.292-0.471c-0.198-0.012-0.523,0.098-0.589,0.248
		c-0.216,0.496-0.417,1.021-0.488,1.554c-0.588,4.391-0.845,8.799-0.529,13.225c0.269,3.779,0.179,4.038-2.779,6.426
		c-2.363,1.907-4.559,1.608-6.284-0.909c-1.437-2.097-2.312-4.462-2.572-6.957c-0.458-4.387-0.691-8.797-1.062-13.194
		c-0.037-0.431-0.379-0.836-0.58-1.254c-0.309,0.387-0.625,0.77-0.923,1.164c-0.057,0.075-0.061,0.195-0.072,0.297
		c-0.588,5.105-0.538,10.196,0.621,15.218c0.61,2.647,1.588,5.187,3.498,7.217c2.956,3.144,7.582,2.6,9.732-1.104
		C43.268,38.062,43.478,37.685,43.692,37.309z M184,15.43c-1.76-1.088-3.501-1.652-5.421-1.631
		c-4.829,0.054-9.66,0.071-14.487,0.198c-2.184,0.058-4.364,0.318-6.539,0.546c-0.286,0.03-0.534,0.418-0.8,0.641
		c0.257,0.233,0.494,0.499,0.78,0.688c0.156,0.104,0.395,0.1,0.598,0.111c2.733,0.146,5.467,0.302,8.201,0.421
		c1.086,0.047,2.176,0.008,3.392,0.008c-0.11,0.725-0.204,1.253-0.269,1.785c-0.805,6.603-0.43,13.193,0.24,19.777
		c0.068,0.672,0.193,1.378,0.489,1.97c0.17,0.341,0.763,0.7,1.114,0.653c0.322-0.042,0.624-0.588,0.838-0.967
		c0.119-0.21,0.067-0.535,0.043-0.805c-0.402-4.497-0.868-8.989-1.204-13.49c-0.216-2.89-0.243-5.794-0.357-8.744
		C175.061,16.298,179.559,17.257,184,15.43z"/>
	<path fill-rule="evenodd" clip-rule="evenodd" d="M106.858,8.81c0.235,2.173,0.512,4.342,0.695,6.52
		c0.291,3.446,0.556,6.895,0.763,10.347c0.278,4.617,0.495,9.237,0.725,13.856c0.026,0.511,0.001,1.028-0.058,1.535
		c-0.031,0.271-0.126,0.684-0.3,0.75c-0.224,0.085-0.612-0.038-0.831-0.203c-0.839-0.629-1.286-1.505-1.345-2.551
		c-0.215-3.831-0.404-7.663-0.624-11.494c-0.319-5.54-0.659-11.078-0.984-16.617c-0.174-2.976-0.349-5.952-0.483-8.929
		c-0.015-0.318,0.234-0.649,0.36-0.974c0.217,0.178,0.521,0.311,0.64,0.54c5.184,9.992,12.406,18.614,18.716,27.848
		c0.632,0.925,1.275,1.843,2.103,3.035c0-0.617-0.006-0.938,0.001-1.261c0.146-7.71,0.276-15.421,0.453-23.132
		c0.04-1.744,0.21-3.488,0.395-5.225c0.037-0.352,0.405-0.668,0.621-1.001c0.19,0.358,0.536,0.711,0.548,1.075
		c0.163,5.242,0.342,10.484,0.396,15.728c0.065,6.479,0.02,12.958,0.016,19.438c-0.001,1.515-0.273,2.969-1.053,4.464
		c-1.021-0.976-1.329-2.116-1.363-3.292c-0.032-1.122-0.309-2.011-0.981-2.978c-4.635-6.661-9.195-13.376-13.711-20.118
		c-1.503-2.243-2.809-4.619-4.205-6.934c-0.1-0.166-0.203-0.33-0.305-0.495C106.982,8.765,106.92,8.787,106.858,8.81z"/>
	<path fill-rule="evenodd" clip-rule="evenodd" d="M19.675,21.238c-5.166,1.746-10.378,1.006-15.553,0.923
		c-0.237-0.004-0.475,0-0.84,0c-0.02,0.379-0.058,0.74-0.053,1.1c0.065,4.796,0.147,9.592,0.196,14.388
		c0.006,0.64-0.056,1.308-0.242,1.915c-0.262,0.857-1.014,1.155-1.678,0.572c-0.539-0.474-1.11-1.235-1.149-1.9
		c-0.214-3.623-0.376-7.256-0.354-10.885c0.044-7.16,0.201-14.32,0.357-21.479C0.392,4.404,0.615,2.94,0.768,1.477
		C0.841,0.779,0.947-0.004,1.856,0c0.942,0.004,0.985,0.843,1.028,1.512c0.134,2.084,0.266,4.172,0.3,6.26
		c0.055,3.426,0.033,6.854,0.044,10.28c0.001,0.372,0,0.743,0,1.195c5.496,0.171,10.911-0.81,16.446-0.058
		c0.048-0.499,0.12-0.993,0.141-1.49c0.206-5.101,0.4-10.201,0.607-15.302c0.017-0.409,0.032-0.841,0.175-1.213
		c0.102-0.266,0.416-0.449,0.636-0.669c0.184,0.22,0.493,0.421,0.53,0.664c0.154,1.014,0.3,2.04,0.318,3.063
		c0.133,7.673,0.25,15.347,0.337,23.021c0.033,2.981,0.013,5.964-0.069,8.943c-0.021,0.753-0.26,1.552-0.596,2.232
		c-0.434,0.88-1.204,0.876-1.58-0.042c-0.365-0.891-0.604-1.9-0.609-2.859c-0.02-4.386,0.063-8.771,0.109-13.157
		C19.678,22.011,19.675,21.642,19.675,21.238z"/>
	<path fill-rule="evenodd" clip-rule="evenodd" d="M211.28,17.521c0.405,2.927,0.817,5.729,1.176,8.538
		c0.487,3.834,0.935,7.673,1.398,11.51c0.073,0.611,0.268,1.244,0.169,1.826c-0.076,0.449-0.522,1.172-0.806,1.173
		c-0.448,0.001-1.183-0.416-1.296-0.803c-0.363-1.236-0.585-2.532-0.705-3.82c-0.555-5.962-1.058-11.929-1.582-17.93
		c-0.229,0-0.519,0-0.862,0c-0.056-1.092,0.712-1.626,1.447-1.932c2.97-1.235,6.03-1.502,9.106-0.381
		c2.618,0.954,4.123,2.91,4.562,5.606c0.463,2.834-0.304,5.297-2.635,7.14c-0.29,0.229-0.593,0.44-0.988,0.734
		c2.204,1.994,4.395,3.897,6.482,5.907c0.716,0.688,1.202,1.624,1.739,2.48c0.167,0.265,0.158,0.641,0.256,1.086
		c-1.261,0.124-2.289-0.255-3.079-1.007c-2.548-2.43-5.028-4.93-7.7-7.565c-1.42,0.361-3.129,0.316-4.919-0.85
		c1.361-0.551,2.521-1.032,3.689-1.487c0.635-0.247,1.318-0.386,1.928-0.682c2.025-0.983,2.99-2.591,2.839-4.883
		c-0.133-2.003-1.263-3.607-3.253-4.312C215.961,17.059,213.619,17.143,211.28,17.521z"/>
	<path fill-rule="evenodd" clip-rule="evenodd" d="M70.312,18.273c-2.213,2.837-6.22,6.566-7.39,6.641
		c0.02,0.289,0.04,0.578,0.06,0.863c-0.123,0.073-0.213,0.176-0.293,0.168c-1.271-0.114-2.382-0.587-3.285-1.505
		c-1.581-1.608-3.159-3.219-4.953-4.724c0.154,1.397,0.313,2.794,0.462,4.192c0.461,4.321,0.918,8.642,1.377,12.963
		c0.072,0.68,0.17,1.358,0.214,2.04c0.045,0.699-0.252,1.22-0.973,1.361c-0.714,0.141-1.255-0.221-1.441-0.869
		c-0.224-0.782-0.351-1.606-0.405-2.42c-0.311-4.647-0.597-9.297-0.872-13.947c-0.107-1.812-0.207-3.626-0.221-5.44
		c-0.003-0.483,0.324-0.969,0.5-1.453c0.337,0.21,0.697,0.392,1.007,0.637c2.088,1.647,4.192,3.276,6.233,4.98
		c0.877,0.732,1.615,1.631,2.366,2.403c2.153-3.139,4.431-6.357,8.119-8.225c0.779-0.394,1.035-0.107,1.067,0.581
		c0.046,0.992,0.017,1.987,0.007,2.981c-0.062,6.032-0.123,12.063-0.196,18.096c-0.006,0.474,0.008,0.996-0.182,1.405
		c-0.16,0.344-0.63,0.798-0.915,0.767c-0.37-0.041-0.729-0.482-1.017-0.817c-0.13-0.15-0.115-0.459-0.106-0.694
		c0.25-6.263,0.509-12.524,0.767-18.787C70.26,19.07,70.289,18.672,70.312,18.273z"/>
	<path fill-rule="evenodd" clip-rule="evenodd" d="M231.333,16.896c-0.067-0.021-0.221-0.027-0.313-0.104
		c-0.313-0.261-0.604-0.548-0.904-0.825c0.312-0.266,0.594-0.712,0.939-0.769c2.022-0.329,4.057-0.6,6.094-0.825
		c1.564-0.172,3.137-0.285,4.71-0.349c0.915-0.038,1.852-0.012,2.749,0.149c0.495,0.089,1.014,0.436,1.374,0.809
		c0.747,0.772,0.523,1.433-0.54,1.55c-1.428,0.157-2.869,0.236-4.305,0.257c-2.735,0.038-5.471,0.011-8.191,0.011
		c0.254,3.25,0.485,6.207,0.73,9.34c2.35-0.628,4.543,0.003,6.973,0.734c-2.312,0.839-4.429,1.493-6.887,0.854
		c0.262,3.289,0.514,6.441,0.769,9.625c1.753-0.303,3.414-0.711,5.098-0.85c2.069-0.171,4.155-0.118,6.235-0.158
		c0.135-0.003,0.31-0.015,0.4,0.059c0.508,0.408,0.996,0.842,1.491,1.266c-0.467,0.412-0.878,0.933-1.416,1.204
		c-0.495,0.251-1.124,0.3-1.698,0.325c-3.593,0.162-7.186,0.312-10.779,0.425c-1.594,0.05-1.789-0.092-1.898-1.692
		c-0.359-5.292-0.709-10.586-0.951-15.883C230.936,20.386,231.209,18.708,231.333,16.896z"/>
	<path fill-rule="evenodd" clip-rule="evenodd" d="M97.601,40.819c-3.472-3.192-4.656-7.653-6.357-11.772
		c-1.978,0-3.907,0.036-5.833-0.014c-1.126-0.03-2.252-0.169-3.372-0.315c-0.61-0.079-0.907,0.141-1.181,0.679
		c-1.38,2.713-2.793,5.409-4.228,8.094c-0.32,0.599-0.728,1.167-1.185,1.667c-0.199,0.218-0.625,0.227-0.948,0.331
		c-0.021-0.315-0.126-0.654-0.043-0.938c0.133-0.454,0.394-0.871,0.596-1.305c2.728-5.856,5.42-11.729,8.205-17.559
		c0.748-1.565,1.766-3.002,2.682-4.484c0.175-0.284,0.415-0.573,0.696-0.739c0.581-0.343,1.413-0.264,1.418,0.384
		c0.015,1.722,1.306,2.813,1.817,4.283c1.323,3.805,2.841,7.542,4.272,11.311c1.14,3,2.271,6.005,3.396,9.012
		c0.151,0.404,0.244,0.831,0.365,1.247C97.801,40.739,97.701,40.779,97.601,40.819z M90.228,26.256
		c-1.045-3.001-2.054-5.9-3.063-8.799c-0.121-0.011-0.243-0.022-0.364-0.034c-1.537,3.082-3.073,6.164-4.672,9.37
		C84.95,26.605,87.536,26.435,90.228,26.256z"/>
	<path fill-rule="evenodd" clip-rule="evenodd" d="M155.002,40.824c-3.477-3.185-4.659-7.643-6.362-11.774
		c-1.965,0-3.893,0.035-5.817-0.014c-1.058-0.026-2.117-0.156-3.166-0.309c-0.751-0.108-1.145,0.13-1.497,0.831
		c-1.398,2.779-2.86,5.527-4.338,8.267c-0.305,0.563-0.746,1.065-1.187,1.537c-0.136,0.145-0.558,0.208-0.707,0.104
		s-0.225-0.499-0.152-0.702c0.217-0.609,0.52-1.189,0.794-1.778c2.758-5.918,5.483-11.851,8.299-17.741
		c0.704-1.471,1.687-2.812,2.567-4.195c0.349-0.546,0.841-0.973,1.545-0.695c0.626,0.247,0.701,0.772,0.499,1.373
		c-0.034,0.103,0.004,0.276,0.075,0.361c1.692,2.031,2.218,4.598,3.146,6.966c2.131,5.437,4.158,10.915,6.22,16.378
		c0.153,0.404,0.249,0.831,0.37,1.248C155.195,40.729,155.099,40.776,155.002,40.824z M139.511,26.796
		c2.836-0.19,5.44-0.365,8.106-0.544c-1.039-2.989-2.049-5.893-3.059-8.796c-0.117-0.014-0.235-0.027-0.353-0.041
		C142.671,20.483,141.135,23.552,139.511,26.796z"/>
	<path fill-rule="evenodd" clip-rule="evenodd" d="M202.075,36.93c-0.206,0.356-0.408,0.709-0.611,1.06
		c-2.18,3.762-6.839,4.307-9.793,1.089c-2.104-2.292-3.088-5.154-3.673-8.131c-0.918-4.672-0.962-9.39-0.423-14.115
		c0.012-0.102,0.004-0.223,0.057-0.301c0.299-0.44,0.607-1.229,0.922-1.233c0.831-0.011,0.615,0.814,0.636,1.354
		c0.175,4.72,0.207,9.453,1.225,14.099c0.478,2.185,1.213,4.28,2.543,6.109c1.639,2.251,3.891,2.568,6.011,0.76
		c3.769-3.217,3.062-2.366,2.865-6.666c-0.2-4.396-0.014-8.768,0.569-13.125c0.062-0.468,0.211-0.941,0.411-1.368
		c0.09-0.19,0.409-0.272,0.625-0.404c0.113,0.189,0.259,0.367,0.331,0.571c0.053,0.153,0.005,0.339,0.011,0.511
		c0.208,5.956,0.425,11.91,0.62,17.866c0.043,1.324,0.034,2.65-0.011,3.974c-0.008,0.241-0.263,0.564-0.488,0.672
		c-0.121,0.058-0.506-0.213-0.627-0.421C202.854,38.51,202.497,37.752,202.075,36.93z"/>
	<path fill-rule="evenodd" clip-rule="evenodd" d="M43.692,37.309c-0.214,0.376-0.424,0.753-0.641,1.126
		c-2.15,3.704-6.777,4.248-9.732,1.104c-1.909-2.03-2.887-4.569-3.498-7.217C28.663,27.3,28.612,22.209,29.2,17.104
		c0.012-0.102,0.016-0.222,0.072-0.297c0.299-0.395,0.614-0.777,0.923-1.164c0.201,0.417,0.543,0.823,0.58,1.254
		c0.371,4.397,0.605,8.807,1.062,13.194c0.26,2.495,1.135,4.86,2.572,6.957c1.725,2.518,3.92,2.816,6.284,0.909
		c2.958-2.388,3.048-2.646,2.779-6.426c-0.315-4.426-0.059-8.834,0.529-13.225c0.071-0.533,0.271-1.059,0.488-1.554
		c0.065-0.15,0.391-0.26,0.589-0.248c0.109,0.006,0.235,0.292,0.292,0.471c0.05,0.156,0.01,0.339,0.015,0.511
		c0.14,5.206,0.26,10.412,0.434,15.616c0.048,1.434,0.295,2.86,0.378,4.294c0.037,0.639-0.071,1.295-0.185,1.93
		c-0.048,0.269-0.279,0.505-0.427,0.757c-0.269-0.182-0.636-0.304-0.787-0.556C44.403,38.863,44.1,38.144,43.692,37.309z"/>
	<path fill-rule="evenodd" clip-rule="evenodd" d="M184,15.43c-4.441,1.827-8.939,0.869-13.382,1.161
		c0.114,2.949,0.142,5.854,0.357,8.744c0.336,4.501,0.802,8.993,1.204,13.49c0.024,0.27,0.076,0.595-0.043,0.805
		c-0.214,0.379-0.516,0.925-0.838,0.967c-0.352,0.047-0.944-0.312-1.114-0.653c-0.296-0.592-0.421-1.298-0.489-1.97
		c-0.67-6.584-1.045-13.174-0.24-19.777c0.064-0.532,0.158-1.06,0.269-1.785c-1.216,0-2.306,0.04-3.392-0.008
		c-2.734-0.119-5.468-0.274-8.201-0.421c-0.203-0.011-0.441-0.007-0.598-0.111c-0.286-0.19-0.523-0.455-0.78-0.688
		c0.266-0.223,0.514-0.61,0.8-0.641c2.175-0.228,4.355-0.488,6.539-0.546c4.827-0.126,9.658-0.144,14.487-0.198
		C180.499,13.777,182.24,14.341,184,15.43z"/>
	<path fill-rule="evenodd" clip-rule="evenodd" fill="#FFFFFF" d="M90.228,26.256c-2.692,0.179-5.278,0.35-8.1,0.537
		c1.599-3.206,3.136-6.288,4.672-9.37c0.121,0.011,0.243,0.022,0.364,0.034C88.174,20.355,89.183,23.254,90.228,26.256z"/>
	<path fill-rule="evenodd" clip-rule="evenodd" fill="#FFFFFF" d="M139.511,26.796c1.624-3.244,3.16-6.312,4.695-9.38
		c0.117,0.013,0.235,0.027,0.353,0.041c1.01,2.903,2.02,5.807,3.059,8.796C144.951,26.431,142.347,26.605,139.511,26.796z"/>
</g>
</svg>
