<?xml version="1.0" encoding="utf-8"?>
<!-- Generator: Adobe Illustrator 16.0.0, SVG Export Plug-In . SVG Version: 6.00 Build 0)  -->
<!DOCTYPE svg PUBLIC "-//W3C//DTD SVG 1.1//EN" "http://www.w3.org/Graphics/SVG/1.1/DTD/svg11.dtd">
<svg version="1.1" id="Layer_1" xmlns="http://www.w3.org/2000/svg" xmlns:xlink="http://www.w3.org/1999/xlink" x="0px" y="0px"
	 width="247.754px" height="42.559px" viewBox="0 0 247.754 42.559" enable-background="new 0 0 247.754 42.559"
	 xml:space="preserve">
<g>
	<path fill="#FFFFFF" d="M106.858,8.81c0.062-0.022,0.125-0.045,0.187-0.067c0.102,0.165,0.205,0.328,0.305,0.494
		c1.396,2.315,2.702,4.691,4.205,6.935c4.517,6.742,9.077,13.457,13.711,20.118c0.673,0.967,0.949,1.854,0.98,2.978
		c0.035,1.176,0.344,2.316,1.363,3.292c0.779-1.495,1.053-2.949,1.053-4.464c0.004-6.479,0.051-12.959-0.016-19.438
		c-0.055-5.244-0.232-10.486-0.396-15.729c-0.012-0.364-0.356-0.717-0.547-1.075c-0.217,0.333-0.584,0.65-0.621,1.001
		c-0.186,1.736-0.354,3.48-0.396,5.226c-0.177,7.71-0.308,15.421-0.453,23.132c-0.007,0.322-0.001,0.644-0.001,1.261
		c-0.826-1.191-1.471-2.11-2.103-3.035c-6.31-9.233-13.532-17.855-18.716-27.848c-0.119-0.229-0.422-0.362-0.64-0.54
		c-0.126,0.325-0.375,0.656-0.36,0.974c0.135,2.979,0.309,5.953,0.483,8.93c0.325,5.539,0.666,11.078,0.984,16.616
		c0.22,3.831,0.409,7.663,0.624,11.494c0.059,1.046,0.506,1.922,1.345,2.552c0.219,0.165,0.607,0.287,0.831,0.202
		c0.174-0.065,0.269-0.479,0.3-0.75c0.059-0.507,0.083-1.023,0.058-1.534c-0.23-4.619-0.447-9.239-0.725-13.856
		c-0.208-3.452-0.473-6.901-0.763-10.347C107.37,13.152,107.093,10.983,106.858,8.81z M19.675,21.238c0,0.404,0.003,0.773,0,1.144
		c-0.045,4.386-0.128,8.771-0.109,13.157c0.004,0.959,0.244,1.969,0.609,2.858c0.376,0.918,1.146,0.922,1.58,0.042
		c0.336-0.681,0.575-1.479,0.596-2.231c0.082-2.979,0.102-5.962,0.069-8.943c-0.087-7.674-0.205-15.348-0.337-23.021
		c-0.018-1.023-0.164-2.05-0.318-3.063c-0.037-0.243-0.346-0.444-0.53-0.664c-0.22,0.22-0.534,0.404-0.636,0.669
		c-0.143,0.373-0.159,0.805-0.175,1.213C20.216,7.499,20.021,12.6,19.815,17.7c-0.021,0.497-0.092,0.99-0.141,1.489
		c-5.536-0.752-10.95,0.229-16.446,0.059c0-0.452,0.001-0.824,0-1.195c-0.011-3.427,0.011-6.854-0.044-10.28
		c-0.034-2.088-0.166-4.175-0.3-6.26C2.842,0.843,2.798,0.004,1.856,0C0.947-0.004,0.841,0.779,0.768,1.477
		C0.615,2.94,0.392,4.404,0.359,5.871C0.203,13.031,0.046,20.19,0.002,27.351c-0.022,3.629,0.14,7.262,0.354,10.885
		c0.039,0.665,0.61,1.428,1.149,1.9c0.664,0.583,1.416,0.285,1.678-0.572c0.186-0.606,0.248-1.274,0.242-1.915
		c-0.049-4.796-0.13-9.592-0.196-14.388c-0.005-0.36,0.034-0.721,0.053-1.1c0.366,0,0.604-0.003,0.84,0
		C9.297,22.244,14.509,22.984,19.675,21.238z M211.28,17.521c2.34-0.378,4.682-0.462,6.969,0.349
		c1.99,0.705,3.119,2.309,3.252,4.312c0.151,2.292-0.812,3.9-2.838,4.883c-0.609,0.296-1.293,0.436-1.929,0.683
		c-1.169,0.455-2.327,0.937-3.688,1.486c1.789,1.166,3.498,1.211,4.918,0.851c2.672,2.636,5.152,5.136,7.701,7.564
		c0.789,0.752,1.817,1.131,3.078,1.008c-0.098-0.445-0.089-0.821-0.256-1.087c-0.537-0.855-1.023-1.793-1.738-2.479
		c-2.088-2.01-4.278-3.913-6.482-5.907c0.396-0.294,0.697-0.506,0.988-0.733c2.33-1.844,3.098-4.307,2.635-7.141
		c-0.439-2.697-1.944-4.652-4.562-5.605c-3.076-1.121-6.137-0.854-9.105,0.381c-0.735,0.306-1.504,0.84-1.447,1.932
		c0.344,0,0.633,0,0.861,0c0.525,6.001,1.027,11.968,1.582,17.93c0.121,1.288,0.343,2.584,0.705,3.82
		c0.113,0.387,0.849,0.804,1.297,0.803c0.283-0.001,0.729-0.724,0.806-1.173c0.099-0.582-0.096-1.215-0.169-1.826
		c-0.464-3.837-0.911-7.676-1.398-11.51C212.098,23.25,211.686,20.448,211.28,17.521z M70.312,18.273
		c-0.023,0.398-0.052,0.797-0.068,1.195c-0.258,6.263-0.517,12.524-0.767,18.787c-0.009,0.235-0.024,0.544,0.106,0.694
		c0.288,0.335,0.647,0.775,1.017,0.816c0.285,0.031,0.755-0.423,0.915-0.767c0.19-0.409,0.176-0.933,0.182-1.405
		c0.073-6.032,0.134-12.062,0.196-18.096c0.01-0.994,0.039-1.989-0.007-2.981c-0.032-0.688-0.288-0.975-1.067-0.581
		c-3.688,1.868-5.966,5.085-8.119,8.226c-0.751-0.771-1.489-1.67-2.366-2.403c-2.041-1.704-4.145-3.333-6.233-4.98
		c-0.31-0.244-0.67-0.427-1.007-0.637c-0.176,0.484-0.503,0.97-0.5,1.453c0.014,1.814,0.113,3.628,0.221,5.44
		c0.275,4.649,0.561,9.3,0.872,13.946c0.055,0.813,0.181,1.639,0.405,2.42c0.186,0.648,0.727,1.011,1.441,0.869
		c0.721-0.142,1.018-0.662,0.973-1.36c-0.043-0.683-0.142-1.36-0.214-2.04c-0.459-4.321-0.917-8.643-1.377-12.963
		c-0.149-1.397-0.308-2.795-0.462-4.192c1.794,1.505,3.372,3.116,4.953,4.724c0.903,0.918,2.015,1.392,3.285,1.505
		c0.08,0.009,0.17-0.095,0.293-0.168c-0.02-0.284-0.04-0.573-0.06-0.862C64.092,24.84,68.099,21.111,70.312,18.273z M231.333,16.896
		c-0.123,1.813-0.396,3.49-0.32,5.152c0.242,5.297,0.592,10.591,0.951,15.883c0.109,1.602,0.305,1.742,1.897,1.692
		c3.595-0.113,7.187-0.264,10.779-0.425c0.573-0.025,1.202-0.074,1.698-0.325c0.537-0.271,0.949-0.792,1.416-1.204
		c-0.496-0.424-0.983-0.857-1.491-1.267c-0.091-0.072-0.267-0.062-0.399-0.059c-2.08,0.04-4.166-0.013-6.236,0.158
		c-1.684,0.139-3.344,0.547-5.098,0.85c-0.255-3.184-0.507-6.336-0.77-9.625c2.459,0.64,4.576-0.016,6.888-0.854
		c-2.431-0.731-4.623-1.362-6.974-0.734c-0.244-3.133-0.477-6.09-0.729-9.34c2.722,0,5.456,0.027,8.19-0.011
		c1.438-0.021,2.878-0.101,4.306-0.257c1.063-0.117,1.287-0.778,0.54-1.551c-0.359-0.373-0.879-0.72-1.374-0.809
		c-0.897-0.161-1.834-0.188-2.749-0.149c-1.572,0.064-3.146,0.178-4.71,0.35c-2.037,0.225-4.071,0.496-6.095,0.825
		c-0.346,0.057-0.627,0.503-0.938,0.769c0.299,0.277,0.59,0.562,0.903,0.825C231.112,16.869,231.266,16.875,231.333,16.896z
		 M97.601,40.819c0.1-0.04,0.2-0.079,0.3-0.119c-0.121-0.416-0.213-0.844-0.365-1.247c-1.125-3.008-2.255-6.013-3.396-9.013
		c-1.431-3.769-2.949-7.506-4.272-11.311c-0.511-1.47-1.802-2.562-1.817-4.283c-0.005-0.646-0.837-0.727-1.418-0.384
		c-0.281,0.166-0.521,0.455-0.696,0.739c-0.917,1.481-1.934,2.919-2.682,4.483c-2.785,5.83-5.478,11.703-8.205,17.56
		c-0.202,0.434-0.463,0.851-0.596,1.305c-0.083,0.284,0.022,0.623,0.043,0.938c0.323-0.104,0.749-0.112,0.948-0.33
		c0.458-0.5,0.865-1.068,1.185-1.667c1.435-2.686,2.848-5.382,4.228-8.095c0.274-0.538,0.571-0.758,1.181-0.679
		c1.119,0.146,2.246,0.285,3.372,0.315c1.927,0.05,3.855,0.014,5.833,0.014C92.945,33.166,94.129,37.627,97.601,40.819z
		 M155.002,40.824c0.097-0.049,0.192-0.097,0.289-0.144c-0.121-0.417-0.217-0.844-0.371-1.248
		c-2.062-5.464-4.088-10.94-6.219-16.378c-0.93-2.369-1.455-4.935-3.146-6.966c-0.071-0.085-0.109-0.259-0.075-0.361
		c0.202-0.601,0.127-1.126-0.499-1.373c-0.704-0.276-1.195,0.149-1.545,0.695c-0.881,1.383-1.863,2.724-2.566,4.195
		c-2.815,5.891-5.541,11.822-8.3,17.74c-0.274,0.59-0.577,1.17-0.794,1.778c-0.072,0.203,0.004,0.599,0.152,0.702
		c0.148,0.103,0.57,0.04,0.707-0.104c0.439-0.472,0.882-0.974,1.188-1.536c1.477-2.739,2.938-5.487,4.338-8.268
		c0.353-0.701,0.746-0.938,1.496-0.831c1.049,0.152,2.108,0.282,3.166,0.31c1.926,0.049,3.854,0.014,5.817,0.014
		C150.342,33.182,151.525,37.64,155.002,40.824z M202.075,36.93c0.422,0.822,0.778,1.58,1.199,2.301
		c0.121,0.208,0.506,0.479,0.627,0.421c0.227-0.106,0.48-0.431,0.488-0.672c0.045-1.322,0.054-2.648,0.011-3.974
		c-0.194-5.956-0.411-11.911-0.62-17.866c-0.006-0.171,0.043-0.357-0.011-0.511c-0.071-0.204-0.218-0.382-0.331-0.571
		c-0.216,0.131-0.535,0.213-0.625,0.404c-0.199,0.427-0.35,0.899-0.411,1.368c-0.583,4.356-0.771,8.728-0.569,13.125
		c0.197,4.3,0.903,3.448-2.865,6.666c-2.119,1.809-4.371,1.49-6.01-0.761c-1.33-1.828-2.065-3.925-2.543-6.108
		c-1.019-4.646-1.051-9.378-1.226-14.1c-0.021-0.54,0.194-1.364-0.636-1.354c-0.314,0.004-0.623,0.793-0.922,1.233
		c-0.053,0.077-0.045,0.198-0.057,0.301c-0.539,4.726-0.496,9.442,0.422,14.115c0.586,2.977,1.569,5.839,3.674,8.131
		c2.953,3.218,7.613,2.673,9.793-1.089C201.667,37.639,201.87,37.286,202.075,36.93z M43.692,37.309
		c0.408,0.835,0.711,1.556,1.108,2.218c0.151,0.252,0.519,0.374,0.787,0.557c0.147-0.252,0.378-0.488,0.427-0.757
		c0.113-0.636,0.222-1.291,0.185-1.931c-0.083-1.434-0.331-2.859-0.378-4.294c-0.174-5.204-0.294-10.41-0.434-15.616
		c-0.005-0.171,0.035-0.354-0.015-0.511c-0.057-0.179-0.182-0.465-0.292-0.471c-0.198-0.012-0.523,0.098-0.589,0.248
		c-0.216,0.496-0.417,1.021-0.488,1.554c-0.588,4.392-0.845,8.799-0.529,13.226c0.269,3.778,0.179,4.037-2.779,6.426
		c-2.363,1.907-4.559,1.607-6.284-0.909c-1.437-2.097-2.312-4.462-2.572-6.957c-0.458-4.387-0.691-8.797-1.062-13.194
		c-0.037-0.431-0.379-0.836-0.58-1.254c-0.309,0.387-0.625,0.771-0.923,1.164c-0.057,0.075-0.061,0.195-0.072,0.297
		c-0.588,5.105-0.538,10.196,0.621,15.219c0.61,2.646,1.588,5.187,3.498,7.217c2.956,3.144,7.582,2.6,9.732-1.104
		C43.268,38.062,43.478,37.685,43.692,37.309z M184,15.43c-1.76-1.088-3.502-1.652-5.422-1.631
		c-4.828,0.054-9.66,0.071-14.486,0.198c-2.184,0.058-4.364,0.317-6.539,0.546c-0.286,0.03-0.534,0.418-0.801,0.641
		c0.258,0.233,0.494,0.499,0.781,0.688c0.155,0.104,0.395,0.1,0.598,0.11c2.732,0.146,5.467,0.303,8.201,0.421
		c1.086,0.048,2.176,0.009,3.392,0.009c-0.11,0.725-0.204,1.253-0.269,1.785c-0.806,6.603-0.431,13.192,0.239,19.776
		c0.068,0.672,0.193,1.378,0.489,1.97c0.17,0.342,0.764,0.7,1.113,0.653c0.322-0.042,0.625-0.588,0.838-0.967
		c0.119-0.21,0.068-0.535,0.044-0.805c-0.402-4.497-0.868-8.989-1.204-13.49c-0.217-2.891-0.243-5.794-0.357-8.744
		C175.061,16.298,179.559,17.257,184,15.43z"/>
	<path d="M106.858,8.81c0.235,2.173,0.512,4.342,0.695,6.521c0.291,3.445,0.556,6.895,0.763,10.347
		c0.278,4.617,0.495,9.237,0.725,13.856c0.026,0.511,0.001,1.027-0.058,1.534c-0.031,0.271-0.126,0.685-0.3,0.75
		c-0.224,0.085-0.612-0.037-0.831-0.202c-0.839-0.63-1.286-1.506-1.345-2.552c-0.215-3.831-0.404-7.663-0.624-11.494
		c-0.319-5.539-0.659-11.077-0.984-16.616c-0.174-2.977-0.349-5.952-0.483-8.93c-0.015-0.317,0.234-0.648,0.36-0.974
		c0.217,0.178,0.521,0.311,0.64,0.54c5.184,9.992,12.406,18.614,18.716,27.848c0.632,0.925,1.275,1.844,2.103,3.035
		c0-0.617-0.006-0.938,0.001-1.261c0.146-7.71,0.276-15.421,0.453-23.132c0.04-1.744,0.21-3.488,0.396-5.226
		c0.037-0.352,0.404-0.668,0.621-1.001c0.189,0.358,0.535,0.711,0.547,1.075c0.164,5.242,0.342,10.484,0.396,15.729
		c0.064,6.479,0.02,12.958,0.016,19.438c0,1.515-0.272,2.969-1.053,4.464c-1.021-0.976-1.328-2.116-1.363-3.292
		c-0.031-1.122-0.309-2.011-0.98-2.978c-4.635-6.661-9.195-13.376-13.711-20.118c-1.503-2.243-2.809-4.619-4.205-6.935
		c-0.1-0.166-0.203-0.329-0.305-0.494C106.982,8.765,106.92,8.787,106.858,8.81z"/>
	<path d="M19.675,21.238c-5.166,1.746-10.378,1.007-15.553,0.924c-0.237-0.004-0.475,0-0.84,0c-0.02,0.379-0.058,0.739-0.053,1.1
		c0.065,4.796,0.147,9.592,0.196,14.388c0.006,0.641-0.056,1.309-0.242,1.915c-0.262,0.857-1.014,1.155-1.678,0.572
		c-0.539-0.474-1.11-1.235-1.149-1.9C0.142,34.613-0.02,30.98,0.002,27.351c0.044-7.16,0.201-14.319,0.357-21.479
		C0.392,4.404,0.615,2.94,0.768,1.477C0.841,0.779,0.947-0.004,1.856,0c0.942,0.004,0.985,0.843,1.028,1.512
		c0.134,2.084,0.266,4.172,0.3,6.26c0.055,3.427,0.033,6.854,0.044,10.28c0.001,0.372,0,0.743,0,1.195
		c5.496,0.171,10.911-0.811,16.446-0.059c0.048-0.499,0.12-0.993,0.141-1.489c0.206-5.102,0.4-10.201,0.607-15.303
		c0.017-0.409,0.032-0.841,0.175-1.213c0.102-0.266,0.416-0.449,0.636-0.669c0.184,0.22,0.493,0.421,0.53,0.664
		c0.154,1.014,0.3,2.04,0.318,3.063c0.133,7.673,0.25,15.347,0.337,23.021c0.033,2.981,0.013,5.964-0.069,8.943
		c-0.021,0.753-0.26,1.552-0.596,2.231c-0.434,0.88-1.204,0.876-1.58-0.042c-0.365-0.891-0.604-1.899-0.609-2.858
		c-0.02-4.387,0.063-8.771,0.109-13.157C19.678,22.011,19.675,21.642,19.675,21.238z"/>
	<path d="M211.28,17.521c0.405,2.928,0.817,5.729,1.176,8.538c0.487,3.834,0.936,7.673,1.398,11.51
		c0.072,0.611,0.268,1.244,0.169,1.826c-0.075,0.449-0.522,1.172-0.806,1.173c-0.448,0.001-1.184-0.416-1.297-0.803
		c-0.362-1.236-0.584-2.532-0.705-3.82c-0.555-5.962-1.057-11.929-1.582-17.93c-0.229,0-0.518,0-0.861,0
		c-0.057-1.092,0.712-1.626,1.447-1.932c2.97-1.235,6.029-1.502,9.105-0.381c2.618,0.954,4.123,2.909,4.562,5.605
		c0.463,2.834-0.305,5.297-2.635,7.141c-0.291,0.229-0.594,0.439-0.988,0.733c2.203,1.994,4.395,3.897,6.482,5.907
		c0.715,0.688,1.201,1.624,1.738,2.479c0.167,0.266,0.158,0.642,0.256,1.087c-1.261,0.123-2.289-0.256-3.078-1.008
		c-2.549-2.43-5.029-4.93-7.701-7.564c-1.42,0.36-3.129,0.315-4.918-0.851c1.36-0.551,2.521-1.031,3.688-1.486
		c0.636-0.247,1.317-0.387,1.929-0.683c2.024-0.982,2.989-2.591,2.838-4.883c-0.133-2.003-1.263-3.606-3.252-4.312
		C215.961,17.059,213.62,17.143,211.28,17.521z"/>
	<path d="M70.312,18.273c-2.213,2.837-6.22,6.566-7.39,6.642c0.02,0.289,0.04,0.578,0.06,0.862
		c-0.123,0.073-0.213,0.177-0.293,0.168c-1.271-0.113-2.382-0.587-3.285-1.505c-1.581-1.607-3.159-3.219-4.953-4.724
		c0.154,1.396,0.313,2.794,0.462,4.192c0.461,4.32,0.918,8.642,1.377,12.963c0.072,0.68,0.17,1.357,0.214,2.04
		c0.045,0.698-0.252,1.22-0.973,1.36c-0.714,0.142-1.255-0.221-1.441-0.869c-0.224-0.781-0.351-1.605-0.405-2.42
		c-0.311-4.646-0.597-9.297-0.872-13.946c-0.107-1.812-0.207-3.626-0.221-5.44c-0.003-0.483,0.324-0.969,0.5-1.453
		c0.337,0.21,0.697,0.393,1.007,0.638c2.088,1.646,4.192,3.275,6.233,4.979c0.877,0.732,1.615,1.631,2.366,2.403
		c2.153-3.14,4.431-6.357,8.119-8.226c0.779-0.394,1.035-0.106,1.067,0.581c0.046,0.992,0.017,1.987,0.007,2.981
		c-0.062,6.032-0.123,12.062-0.196,18.096c-0.006,0.474,0.008,0.996-0.182,1.405c-0.16,0.344-0.63,0.798-0.915,0.767
		c-0.37-0.041-0.729-0.481-1.017-0.816c-0.13-0.15-0.115-0.459-0.106-0.694c0.25-6.263,0.509-12.524,0.767-18.787
		C70.26,19.07,70.289,18.672,70.312,18.273z"/>
	<path d="M231.333,16.896c-0.066-0.021-0.221-0.026-0.312-0.104c-0.312-0.261-0.604-0.548-0.904-0.825
		c0.312-0.266,0.594-0.712,0.939-0.769c2.021-0.329,4.057-0.601,6.094-0.825c1.564-0.172,3.137-0.285,4.71-0.35
		c0.915-0.038,1.853-0.012,2.749,0.149c0.495,0.089,1.014,0.436,1.374,0.809c0.747,0.772,0.522,1.434-0.54,1.551
		c-1.428,0.156-2.869,0.235-4.305,0.257c-2.735,0.038-5.471,0.011-8.191,0.011c0.254,3.25,0.485,6.207,0.73,9.34
		c2.35-0.628,4.543,0.003,6.973,0.734c-2.312,0.839-4.43,1.493-6.887,0.854c0.262,3.289,0.514,6.441,0.77,9.625
		c1.752-0.303,3.413-0.711,5.098-0.85c2.068-0.171,4.154-0.118,6.234-0.158c0.135-0.003,0.311-0.015,0.4,0.059
		c0.508,0.408,0.996,0.843,1.49,1.267c-0.467,0.412-0.877,0.933-1.416,1.204c-0.494,0.251-1.123,0.3-1.697,0.325
		c-3.594,0.161-7.186,0.312-10.779,0.425c-1.594,0.05-1.789-0.092-1.898-1.692c-0.358-5.292-0.709-10.586-0.95-15.883
		C230.936,20.386,231.209,18.708,231.333,16.896z"/>
	<path d="M97.601,40.819c-3.472-3.191-4.656-7.652-6.357-11.771c-1.978,0-3.907,0.036-5.833-0.014
		c-1.126-0.03-2.252-0.169-3.372-0.315c-0.61-0.079-0.907,0.141-1.181,0.679c-1.38,2.713-2.793,5.409-4.228,8.095
		c-0.32,0.599-0.728,1.167-1.185,1.667c-0.199,0.218-0.625,0.227-0.948,0.331c-0.021-0.315-0.126-0.654-0.043-0.938
		c0.133-0.454,0.394-0.871,0.596-1.305c2.728-5.856,5.42-11.729,8.205-17.56c0.748-1.564,1.766-3.002,2.682-4.483
		c0.175-0.284,0.415-0.573,0.696-0.739c0.581-0.343,1.413-0.264,1.418,0.384c0.015,1.722,1.306,2.813,1.817,4.283
		c1.323,3.805,2.841,7.542,4.272,11.311c1.14,3,2.271,6.006,3.396,9.013c0.151,0.403,0.244,0.831,0.365,1.247
		C97.801,40.74,97.701,40.779,97.601,40.819z M90.228,26.256c-1.045-3.001-2.054-5.9-3.063-8.799
		c-0.121-0.012-0.243-0.022-0.364-0.034c-1.537,3.082-3.073,6.164-4.672,9.37C84.95,26.605,87.536,26.435,90.228,26.256z"/>
	<path d="M155.002,40.824c-3.478-3.186-4.66-7.644-6.362-11.774c-1.966,0-3.894,0.035-5.817-0.014
		c-1.058-0.026-2.117-0.156-3.166-0.31c-0.75-0.107-1.145,0.13-1.496,0.831c-1.398,2.779-2.861,5.527-4.338,8.268
		c-0.306,0.562-0.746,1.064-1.188,1.536c-0.137,0.146-0.559,0.208-0.707,0.104c-0.149-0.104-0.225-0.499-0.152-0.702
		c0.217-0.608,0.52-1.188,0.794-1.778c2.759-5.918,5.483-11.851,8.3-17.74c0.703-1.472,1.687-2.812,2.566-4.195
		c0.35-0.546,0.841-0.973,1.545-0.695c0.626,0.247,0.701,0.772,0.499,1.373c-0.034,0.104,0.004,0.276,0.075,0.361
		c1.691,2.031,2.218,4.598,3.146,6.966c2.131,5.438,4.157,10.915,6.219,16.378c0.154,0.404,0.25,0.831,0.371,1.248
		C155.195,40.729,155.099,40.776,155.002,40.824z M139.51,26.796c2.837-0.19,5.441-0.365,8.107-0.544
		c-1.039-2.989-2.05-5.894-3.06-8.796c-0.117-0.015-0.235-0.027-0.353-0.041C142.67,20.483,141.135,23.552,139.51,26.796z"/>
	<path d="M202.075,36.93c-0.205,0.356-0.408,0.709-0.611,1.061c-2.18,3.762-6.838,4.307-9.793,1.089
		c-2.104-2.292-3.088-5.154-3.672-8.131c-0.918-4.673-0.963-9.391-0.424-14.115c0.012-0.103,0.004-0.224,0.057-0.301
		c0.3-0.44,0.607-1.229,0.923-1.233c0.831-0.011,0.614,0.813,0.636,1.354c0.176,4.721,0.207,9.453,1.225,14.1
		c0.479,2.185,1.213,4.28,2.543,6.108c1.64,2.251,3.892,2.568,6.012,0.761c3.77-3.218,3.062-2.366,2.865-6.666
		c-0.201-4.396-0.015-8.769,0.568-13.125c0.062-0.469,0.211-0.941,0.411-1.368c0.09-0.19,0.409-0.272,0.625-0.404
		c0.112,0.189,0.259,0.367,0.331,0.571c0.053,0.153,0.005,0.339,0.012,0.511c0.207,5.956,0.424,11.91,0.619,17.866
		c0.043,1.324,0.034,2.65-0.011,3.974c-0.009,0.241-0.263,0.564-0.488,0.672c-0.12,0.059-0.506-0.213-0.627-0.421
		C202.854,38.51,202.497,37.752,202.075,36.93z"/>
	<path d="M43.692,37.309c-0.214,0.376-0.424,0.753-0.641,1.126c-2.15,3.704-6.777,4.248-9.732,1.104
		c-1.909-2.03-2.887-4.569-3.498-7.217C28.663,27.3,28.612,22.209,29.2,17.104c0.012-0.102,0.016-0.222,0.072-0.297
		c0.299-0.395,0.614-0.776,0.923-1.164c0.201,0.417,0.543,0.823,0.58,1.254c0.371,4.397,0.605,8.808,1.062,13.194
		c0.26,2.495,1.135,4.86,2.572,6.957c1.725,2.518,3.92,2.816,6.284,0.909c2.958-2.389,3.048-2.646,2.779-6.426
		c-0.315-4.427-0.059-8.834,0.529-13.226c0.071-0.533,0.271-1.059,0.488-1.554c0.065-0.15,0.391-0.26,0.589-0.248
		c0.109,0.006,0.235,0.292,0.292,0.471c0.05,0.156,0.01,0.339,0.015,0.511c0.14,5.206,0.26,10.412,0.434,15.616
		c0.048,1.435,0.295,2.86,0.378,4.294c0.037,0.64-0.071,1.295-0.186,1.931c-0.048,0.269-0.279,0.505-0.427,0.757
		c-0.269-0.183-0.636-0.305-0.787-0.557C44.403,38.863,44.1,38.144,43.692,37.309z"/>
	<path d="M184,15.43c-4.441,1.827-8.939,0.869-13.383,1.161c0.114,2.949,0.143,5.854,0.357,8.744
		c0.336,4.501,0.802,8.993,1.203,13.49c0.025,0.27,0.076,0.595-0.043,0.805c-0.213,0.379-0.516,0.925-0.838,0.967
		c-0.352,0.047-0.943-0.312-1.113-0.653c-0.296-0.592-0.421-1.298-0.489-1.97c-0.67-6.584-1.045-13.174-0.239-19.776
		c0.063-0.532,0.157-1.061,0.269-1.785c-1.216,0-2.306,0.04-3.392-0.009c-2.734-0.118-5.469-0.273-8.201-0.421
		c-0.203-0.011-0.441-0.007-0.598-0.11c-0.287-0.19-0.523-0.455-0.781-0.688c0.267-0.223,0.515-0.609,0.801-0.641
		c2.175-0.229,4.355-0.488,6.539-0.546c4.826-0.126,9.658-0.145,14.486-0.198C180.499,13.777,182.241,14.341,184,15.43z"/>
</g>
</svg>
