<?xml version="1.0" encoding="utf-8"?>
<!-- Generator: Adobe Illustrator 16.0.0, SVG Export Plug-In . SVG Version: 6.00 Build 0)  -->
<!DOCTYPE svg PUBLIC "-//W3C//DTD SVG 1.1//EN" "http://www.w3.org/Graphics/SVG/1.1/DTD/svg11.dtd">
<svg version="1.1" id="Layer_1" xmlns="http://www.w3.org/2000/svg" xmlns:xlink="http://www.w3.org/1999/xlink" x="0px" y="0px"
	 width="192.336px" height="156.132px" viewBox="0 0 192.336 156.132" enable-background="new 0 0 192.336 156.132"
	 xml:space="preserve">
<g>
	<path fill="#FFFFFE" d="M0,156.132C0,104.088,0,52.044,0,0c64.111,0,128.224,0,192.336,0c0,52.044,0,104.088,0,156.131
		C128.224,156.132,64.112,156.132,0,156.132z"/>
	<path fill-rule="evenodd" clip-rule="evenodd" fill="#F5BB99" d="M69.959,96.087c0.049-1.332,0.918-2.248,1.823-2.979
		c1.763-1.424,3.772-2.344,6.146-2.232c0.977,0.046,1.961-0.076,2.941-0.121c2.489-0.192,4.652,0.817,6.863,1.76
		c6.957,2.964,13.054,7.376,19.368,11.42c1.484,0.949,3.156,1.307,4.773,1.842c4,1.325,8.087,2.361,12.115,3.598
		c1.726,0.529,3.549,0.735,5.355,0.786c3.373,0.094,6.676,0.649,9.975,1.28c6.363,1.217,12.732,2.387,19.001,4.054
		c4.15,1.104,8.164,2.589,12.167,4.117c0.323,0.124,0.616,0.299,0.884,0.517l-0.017-0.014c0.055,0.088,0.138,0.15,0.208,0.223
		c4.052,2.246,7.778,4.956,11.32,7.929c0.943,0.791,1.882,1.59,2.816,2.392c2.702,2.315,3.181,5.456,2.608,8.621
		c-0.609,3.377-1.497,6.754-3.241,9.795c-0.336,0.586-0.699,1.209-1.202,1.638c-0.844,0.721-1.258,1.76-2.357,2.356
		c-1.752,0.952-3.479,1.346-5.437,1.26c-2.292-0.1-4.593-0.074-6.888-0.018c-3.332,0.083-6.664,0.392-9.992,0.338
		c-5.675-0.092-11.348-0.358-17.02-0.61c-4.848-0.215-9.688-0.639-14.537-0.725c-2.683-0.047-5.373,0.425-8.062,0.637
		c-1.601,0.127-3.204,0.24-4.809,0.297c-2.838,0.101-5.681,0.109-8.519,0.239c-3.275,0.151-6.553,0.616-9.819,0.54
		c-4.357-0.101-8.78-0.096-12.933-1.766c-0.931-0.374-1.757-1.008-2.635-1.515c-0.52-0.301-1.047-0.588-1.572-0.88
		c-1.287-0.715-2.551-1.479-3.87-2.131c-1.609-0.796-3.275-1.479-4.902-2.242c-2.208-1.035-4.371-2.174-6.612-3.13
		c-1.863-0.796-3.823-1.362-5.718-2.09c-1.154-0.443-2.26-1.015-3.399-1.499c-0.483-0.206-1.025-0.281-1.497-0.508
		c-2.493-1.2-4.545-2.974-6.385-5.01c-1.424-1.576-2.844-3.092-4.68-4.287c-1.582-1.029-2.771-2.664-4.128-4.036
		c-0.769-0.774-1.522-1.562-2.294-2.335c-1.067-1.069-2.145-2.13-3.217-3.193c-0.821-0.814-1.623-1.647-2.466-2.438
		c-1.928-1.812-3.844-3.639-5.823-5.393c-1.634-1.446-3.357-2.79-5.03-4.193c-1.749-1.468-3.237-3.151-4.577-5.018
		c-1.976-2.75-4.072-5.422-6.256-8.009c-1.299-1.539-2.904-2.815-4.298-4.28c-0.904-0.951-1.72-1.998-2.474-3.072
		c-0.167-0.238,0.059-0.786,0.166-1.174c0.293-1.054,0.643-2.082,1.781-2.551c0.299-0.123,0.591-0.312,0.901-0.352
		c1.201-0.15,2.407-0.319,3.615-0.346c0.757-0.017,1.53,0.355,2.276,0.297c2.299-0.18,4.277,0.688,6.263,1.648
		c0.86,0.416,1.782,0.704,2.68,1.044c1.37,0.52,2.781,0.953,4.103,1.575c0.935,0.439,1.741,1.146,2.62,1.708
		c0.845,0.541,1.735,1.013,2.558,1.585c0.805,0.561,1.552,1.207,2.318,1.821c1.717,1.376,3.467,2.715,5.132,4.151
		c0.896,0.772,1.614,1.747,2.474,2.566c0.419,0.399,1.064,0.571,1.46,0.987c1.193,1.256,2.742,1.787,4.313,2.305
		c0.188,0.062,0.35,0.197,0.525,0.293c1.369,0.742,2.758,1.449,4.102,2.232c1.314,0.767,2.573,1.627,3.875,2.415
		c0.521,0.315,1.092,0.55,1.641,0.821c1.741,0.574,3.248,1.601,4.771,2.567c3.779,2.397,7.731,4.326,12.084,5.528
		c3.37,0.93,6.707,1.942,10.176,2.421c1.319,0.182,2.644,0.321,3.984,0.334c3.485,0.031,6.975-0.194,10.387,0.19
		c0.137-0.112,0.158-0.199,0.091-0.236c-2.1-1.156-3.362-3.249-5.224-4.67c-1.604-1.225-3.161-2.507-4.712-3.794
		c-3.028-2.513-5.798-5.321-8.852-7.809c-1.537-1.252-3.153-2.414-4.605-3.762c-0.815-0.756-1.492-1.679-1.905-2.743
		C70.506,96.666,70.363,96.288,69.959,96.087z"/>
	<path fill-rule="evenodd" clip-rule="evenodd" fill="#78C261" d="M56.748,12.521c1.963-1.489,4.346-1.93,6.646-2.23
		c9.673-1.262,18.948-0.3,27.574,4.864c6.584,3.942,11.717,9.173,15.597,15.725c1.216,2.053,2.468,4.084,3.768,6.232
		c0.681-2.164,1.25-4.196,1.956-6.18c3.229-9.069,8.734-16.458,16.788-21.747c7.751-5.092,16.289-7.934,25.662-7.909
		c2.924,0.007,4.346,1.552,3.83,4.345c-0.852,4.61-1.437,9.313-2.79,13.778c-3.161,10.427-8.782,19.316-17.876,25.647
		c-4.272,2.974-8.864,5.337-14.163,5.975c-1.084,0.13-2.142,0.467-3.219,0.671c-0.543,0.103-0.815,0.307-0.844,0.925
		c-0.25,5.593-0.113,11.163,0.739,16.71c0.515,3.35,0.913,6.718,1.377,10.077c0.207,1.505,0.447,3.005,0.673,4.507
		c0.438,2.505-0.832,3.643-3.162,4.172c-0.743,0.169-1.554,0.104-2.328-0.043c-1.546-0.788-2.061-2.188-2.242-3.788
		c-0.447-3.941-0.084-7.848,0.316-11.777c0.571-5.606,0.604-11.242-0.753-16.754c-0.791-3.215-1.49-6.498-3.114-9.445
		c-2.061-3.737-4.77-6.939-8.181-9.511c-2.154-1.625-4.39-3.142-6.63-4.663c1.348,1.845,2.885,3.528,4.277,5.323
		c1.538,1.982,3.309,3.747,4.98,5.604c2.022,2.247,3.526,4.794,4.424,7.688c0.098,0.315,0.61,0.926,0.28,1.207
		c-0.269,0.228-0.927-0.127-1.216-0.231c-5.328-1.928-10.926-2.903-16.316-4.612c-6.79-2.152-13.001-5.414-18.794-9.552
		c-3.895-2.781-6.758-6.482-9.612-10.208c-2.104-2.746-4.316-5.413-6.098-8.396c-0.871-1.459-1.518-2.988-1.729-4.688
		C56.495,13.646,56.503,13.073,56.748,12.521z"/>
	<path fill-rule="evenodd" clip-rule="evenodd" fill="#5F4130" d="M116.871,87.829c1.453,0.015,2.93,0.262,4.224-0.754
		c0.669-0.525,1.296-0.968,1.143-1.975c-0.057-0.376,0.145-0.792,0.229-1.189c4.492,0.554,8.947,1.168,12.756,3.979
		c4.398,3.246,8.807,6.485,13.311,9.583c4.5,3.094,8.616,6.61,12.401,10.527c2.49,2.578,5.005,5.137,7.386,7.814
		c1.162,1.309,2.043,2.867,3.052,4.313c-0.96-0.33-1.935-0.622-2.878-0.996c-8.058-3.19-16.466-5.046-24.956-6.595
		c-3.23-0.589-6.459-1.183-9.694-1.743c-0.908-0.158-1.837-0.303-2.754-0.29c-4.103,0.057-7.972-1.075-11.838-2.231
		c-3.501-1.048-6.999-2.103-10.487-3.188c-0.544-0.169-1.053-0.488-1.542-0.795c-4.612-2.891-9.127-5.954-13.858-8.636
		c-3.073-1.741-6.443-2.97-9.718-4.34c-0.854-0.356-1.847-0.382-2.775-0.559c3.611-1.514,7.164-3.198,10.856-4.479
		c2.521-0.875,5.212-1.406,7.87-1.697c3.799-0.416,7.637-0.472,11.457-0.682c0.057,0.04,0.135,0.083,0.14,0.14
		c0.204,2.465,2.286,2.735,4.007,3.396C115.728,87.635,116.333,87.609,116.871,87.829z"/>
	<path fill-rule="evenodd" clip-rule="evenodd" fill="#5F4130" d="M69.959,96.087c0.187-0.058,0.373-0.115,0.384-0.119
		c0.729,1.23,1.264,2.52,2.138,3.508c0.89,1.006,2.14,1.684,3.184,2.562c2.326,1.959,4.614,3.965,6.935,5.932
		c2.429,2.059,4.896,4.07,7.308,6.149c1.104,0.951,2.083,2.045,3.167,3.018c1.144,1.025,2.346,1.985,3.67,3.098
		c-0.462,0.028-0.748,0.066-1.034,0.06c-2.842-0.062-5.687-0.238-8.524-0.174c-4.926,0.111-9.613-1.031-14.347-2.2
		c-6.646-1.642-12.287-5.253-18.078-8.612c-0.114-0.067-0.199-0.185-0.298-0.278c0.34-0.58,0.596-1.236,1.035-1.729
		c3.241-3.63,7.171-6.433,11.167-9.146C67.736,97.427,68.859,96.775,69.959,96.087z"/>
	<path fill-rule="evenodd" clip-rule="evenodd" fill="#269145" d="M116.871,87.829c-1.885,0.166-3.431-0.707-4.993-1.582
		c-1.009-0.564-0.756-1.496-0.824-2.35c0.041-0.372,0.098-0.743,0.12-1.116c0.173-2.862,0.353-5.723,0.499-8.586
		c0.06-1.162,0.072-2.329,0.048-3.492c-0.055-2.672-0.038-5.352-0.255-8.012c-0.183-2.243-0.633-4.466-1.029-6.686
		c-0.041-0.229-0.498-0.47-0.805-0.556c-7.08-1.969-14.278-3.586-21.22-5.956c-7.87-2.687-14.639-7.318-20.415-13.401
		c-2.316-2.44-4.812-4.705-6.412-7.705c-1.721-3.229-3.377-6.495-4.944-9.8c-0.774-1.632-0.989-3.416-0.507-5.218
		c0.106-0.08,0.217-0.159,0.137-0.319c0.159-0.176,0.318-0.353,0.478-0.529c-0.177,3.924,1.986,6.875,4.153,9.789
		c2.446,3.287,4.916,6.563,7.522,9.723c2.275,2.758,5.083,4.962,8.075,6.92c4.889,3.2,10.031,5.899,15.63,7.609
		c3.688,1.126,7.449,2.011,11.165,3.048c2.197,0.613,4.37,1.312,6.883,2.072c-0.633-1.539-1.121-2.924-1.759-4.236
		c-1.213-2.494-3.21-4.4-4.998-6.465c-2.459-2.839-4.874-5.717-7.299-8.586c-0.186-0.219-0.294-0.504-0.438-0.758
		c0.058-0.069,0.114-0.138,0.172-0.207c0.996,0.658,2.009,1.293,2.986,1.979c1.343,0.941,2.678,1.897,3.983,2.888
		c5.741,4.353,9.448,9.964,11.17,17.036c1.273,5.227,1.847,10.459,1.58,15.794c-0.128,2.549-0.585,5.081-0.736,7.63
		c-0.118,2.011-0.025,4.037,0.031,6.054c0.022,0.812,0.033,1.689,0.343,2.411C115.611,86.157,116.305,86.966,116.871,87.829z"/>
	<path fill-rule="evenodd" clip-rule="evenodd" fill="#78C261" d="M56.271,13.05c-0.045,0.106-0.091,0.212-0.137,0.319
		C56.18,13.263,56.226,13.157,56.271,13.05z"/>
	<path fill-rule="evenodd" clip-rule="evenodd" fill="#5F4130" d="M171.562,120.337c-0.069-0.074-0.139-0.148-0.208-0.223
		C171.424,120.189,171.493,120.263,171.562,120.337z"/>
</g>
</svg>
