<?xml version="1.0" encoding="utf-8"?>
<!-- Generator: Adobe Illustrator 16.0.0, SVG Export Plug-In . SVG Version: 6.00 Build 0)  -->
<!DOCTYPE svg PUBLIC "-//W3C//DTD SVG 1.1//EN" "http://www.w3.org/Graphics/SVG/1.1/DTD/svg11.dtd">
<svg version="1.1" id="Layer_1" xmlns="http://www.w3.org/2000/svg" xmlns:xlink="http://www.w3.org/1999/xlink" x="0px" y="0px"
	 width="283.465px" height="153.759px" viewBox="-38.361 38.419 283.465 153.759"
	 enable-background="new -38.361 38.419 283.465 153.759" xml:space="preserve">
<g>
	<path fill="#F5BA98" d="M72.365,134.174c0.041-1.104,0.762-1.865,1.513-2.471c1.462-1.182,3.129-1.944,5.098-1.853
		c0.811,0.038,1.627-0.062,2.44-0.1c2.064-0.159,3.859,0.677,5.693,1.459c5.771,2.46,10.83,6.12,16.067,9.475
		c1.231,0.787,2.618,1.084,3.96,1.527c3.318,1.101,6.709,1.959,10.051,2.985c1.432,0.438,2.944,0.61,4.442,0.652
		c2.798,0.078,5.539,0.538,8.275,1.062c5.279,1.01,10.562,1.98,15.763,3.364c3.443,0.915,6.772,2.146,10.095,3.415
		c0.267,0.103,0.51,0.248,0.732,0.428l-0.014-0.011c0.046,0.072,0.114,0.124,0.172,0.185c3.362,1.863,6.453,4.112,9.392,6.578
		c0.782,0.656,1.562,1.319,2.336,1.985c2.241,1.92,2.639,4.525,2.164,7.151c-0.506,2.802-1.241,5.604-2.688,8.126
		c-0.278,0.486-0.58,1.003-0.998,1.358c-0.7,0.6-1.044,1.461-1.955,1.955c-1.453,0.789-2.887,1.117-4.51,1.046
		c-1.902-0.083-3.812-0.062-5.715-0.015c-2.765,0.067-5.529,0.323-8.29,0.28c-4.707-0.076-9.414-0.299-14.119-0.508
		c-4.021-0.178-8.037-0.529-12.061-0.601c-2.225-0.039-4.457,0.354-6.688,0.528c-1.327,0.105-2.657,0.199-3.989,0.246
		c-2.354,0.084-4.713,0.091-7.066,0.199c-2.718,0.125-5.438,0.511-8.146,0.447c-3.615-0.084-7.284-0.079-10.729-1.465
		c-0.772-0.312-1.458-0.836-2.186-1.258c-0.432-0.249-0.869-0.487-1.304-0.729c-1.067-0.593-2.116-1.229-3.21-1.768
		c-1.335-0.661-2.717-1.229-4.067-1.86c-1.832-0.859-3.626-1.804-5.485-2.598c-1.545-0.659-3.171-1.129-4.743-1.733
		c-0.958-0.368-1.875-0.843-2.82-1.243c-0.401-0.172-0.851-0.233-1.242-0.421c-2.068-0.997-3.771-2.468-5.297-4.158
		c-1.181-1.308-2.359-2.564-3.882-3.557c-1.312-0.852-2.298-2.21-3.425-3.348c-0.638-0.642-1.263-1.296-1.903-1.936
		c-0.885-0.889-1.78-1.769-2.669-2.649c-0.681-0.676-1.346-1.367-2.045-2.023c-1.6-1.503-3.189-3.02-4.831-4.475
		c-1.355-1.198-2.785-2.313-4.173-3.479c-1.451-1.217-2.686-2.613-3.797-4.162c-1.64-2.281-3.378-4.498-5.19-6.644
		c-1.078-1.276-2.409-2.337-3.565-3.552c-0.75-0.789-1.427-1.657-2.052-2.549c-0.139-0.196,0.049-0.651,0.137-0.974
		c0.244-0.873,0.534-1.728,1.478-2.116c0.248-0.103,0.49-0.26,0.747-0.292c0.997-0.124,1.997-0.264,3-0.286
		c0.628-0.015,1.269,0.295,1.888,0.246c1.907-0.149,3.548,0.57,5.196,1.367c0.713,0.346,1.478,0.584,2.223,0.865
		c1.136,0.432,2.307,0.791,3.404,1.308c0.775,0.363,1.444,0.949,2.173,1.416c0.701,0.449,1.439,0.841,2.123,1.316
		c0.667,0.465,1.287,1.001,1.923,1.51c1.424,1.141,2.876,2.252,4.257,3.443c0.743,0.64,1.339,1.45,2.052,2.129
		c0.348,0.33,0.883,0.473,1.211,0.818c0.99,1.042,2.275,1.482,3.578,1.913c0.156,0.051,0.291,0.162,0.436,0.243
		c1.136,0.614,2.288,1.201,3.403,1.851c1.09,0.637,2.135,1.35,3.215,2.005c0.432,0.261,0.906,0.455,1.361,0.68
		c1.444,0.477,2.695,1.329,3.958,2.13c3.135,1.989,6.414,3.589,10.025,4.587c2.796,0.771,5.564,1.61,8.442,2.008
		c1.094,0.151,2.193,0.267,3.305,0.276c2.891,0.026,5.786-0.16,8.616,0.159c0.114-0.094,0.131-0.165,0.076-0.196
		c-1.743-0.959-2.79-2.696-4.334-3.874c-1.33-1.016-2.622-2.08-3.909-3.148c-2.512-2.084-4.81-4.414-7.343-6.478
		c-1.275-1.039-2.616-2.003-3.82-3.121c-0.676-0.627-1.238-1.394-1.581-2.276C72.818,134.654,72.7,134.341,72.365,134.174z"/>
	<path fill="#78C261" d="M61.405,64.848c1.628-1.235,3.605-1.601,5.514-1.85c8.024-1.047,15.719-0.249,22.875,4.036
		c5.462,3.27,9.721,7.61,12.939,13.045c1.01,1.704,2.049,3.388,3.127,5.17c0.564-1.795,1.037-3.48,1.622-5.126
		c2.679-7.524,7.246-13.654,13.928-18.042c6.431-4.225,13.514-6.582,21.289-6.562c2.426,0.006,3.605,1.288,3.177,3.605
		c-0.706,3.824-1.191,7.726-2.313,11.43c-2.623,8.65-7.286,16.024-14.831,21.276c-3.543,2.468-7.353,4.428-11.749,4.957
		c-0.899,0.108-1.777,0.387-2.67,0.558c-0.45,0.085-0.677,0.254-0.701,0.767c-0.207,4.64-0.093,9.261,0.613,13.862
		c0.428,2.779,0.758,5.573,1.143,8.359c0.172,1.25,0.371,2.494,0.559,3.74c0.363,2.077-0.69,3.021-2.623,3.461
		c-0.617,0.139-1.289,0.086-1.932-0.036c-1.283-0.654-1.71-1.814-1.859-3.144c-0.371-3.268-0.07-6.51,0.262-9.769
		c0.474-4.651,0.501-9.326-0.625-13.899c-0.656-2.667-1.236-5.391-2.583-7.835c-1.71-3.101-3.957-5.758-6.787-7.891
		c-1.787-1.349-3.643-2.606-5.5-3.868c1.119,1.53,2.393,2.926,3.547,4.415c1.277,1.645,2.746,3.108,4.133,4.648
		c1.677,1.865,2.925,3.979,3.67,6.379c0.081,0.262,0.506,0.769,0.232,1.001c-0.223,0.188-0.77-0.105-1.009-0.191
		c-4.421-1.6-9.064-2.408-13.536-3.826c-5.633-1.785-10.786-4.491-15.592-7.925c-3.231-2.307-5.606-5.377-7.974-8.468
		c-1.746-2.278-3.581-4.49-5.059-6.965c-0.723-1.21-1.259-2.479-1.435-3.889C61.195,65.781,61.202,65.306,61.405,64.848z"/>
	<path fill="#5F4130" d="M111.283,127.324c1.205,0.012,2.431,0.217,3.504-0.625c0.555-0.437,1.075-0.804,0.948-1.639
		c-0.047-0.312,0.12-0.657,0.19-0.986c3.727,0.458,7.422,0.969,10.582,3.301c3.648,2.692,7.307,5.379,11.043,7.95
		c3.733,2.566,7.148,5.483,10.288,8.732c2.065,2.139,4.151,4.263,6.127,6.482c0.964,1.086,1.695,2.379,2.532,3.578
		c-0.797-0.274-1.605-0.516-2.388-0.827c-6.685-2.646-13.66-4.185-20.703-5.47c-2.681-0.489-5.358-0.982-8.043-1.447
		c-0.753-0.131-1.523-0.251-2.284-0.239c-3.403,0.047-6.613-0.893-9.821-1.851c-2.904-0.87-5.806-1.745-8.7-2.646
		c-0.45-0.139-0.873-0.403-1.278-0.659c-3.827-2.397-7.572-4.938-11.497-7.163c-2.549-1.445-5.345-2.465-8.062-3.601
		c-0.708-0.297-1.533-0.317-2.302-0.465c2.996-1.256,5.943-2.652,9.006-3.716c2.092-0.726,4.325-1.166,6.53-1.408
		c3.15-0.345,6.335-0.39,9.504-0.565c0.048,0.034,0.112,0.07,0.115,0.117c0.17,2.045,1.897,2.269,3.325,2.817
		C110.335,127.162,110.837,127.141,111.283,127.324z"/>
	<path fill="#5F4130" d="M72.365,134.174c0.155-0.049,0.31-0.096,0.318-0.099c0.605,1.021,1.049,2.09,1.774,2.91
		c0.738,0.834,1.775,1.396,2.642,2.126c1.93,1.625,3.828,3.289,5.753,4.921c2.015,1.708,4.062,3.377,6.062,5.101
		c0.916,0.789,1.728,1.696,2.627,2.503c0.949,0.851,1.946,1.648,3.044,2.572c-0.383,0.022-0.621,0.053-0.858,0.048
		c-2.357-0.05-4.718-0.195-7.071-0.144c-4.087,0.092-7.975-0.855-11.902-1.825c-5.514-1.362-10.193-4.358-14.998-7.144
		c-0.095-0.057-0.165-0.154-0.248-0.231c0.283-0.481,0.495-1.026,0.859-1.435c2.689-3.012,5.949-5.337,9.264-7.588
		C70.521,135.286,71.452,134.745,72.365,134.174z"/>
	<path fill="#259145" d="M111.283,127.324c-1.563,0.138-2.847-0.587-4.143-1.312c-0.837-0.468-0.627-1.241-0.683-1.949
		c0.034-0.31,0.081-0.617,0.099-0.927c0.145-2.374,0.293-4.747,0.414-7.123c0.05-0.963,0.06-1.932,0.04-2.896
		c-0.046-2.216-0.031-4.44-0.212-6.647c-0.151-1.859-0.525-3.703-0.854-5.546c-0.033-0.189-0.413-0.39-0.668-0.461
		c-5.873-1.634-11.845-2.975-17.604-4.941c-6.529-2.229-12.145-6.071-16.936-11.117c-1.921-2.024-3.992-3.903-5.32-6.392
		c-1.427-2.679-2.801-5.389-4.101-8.131c-0.642-1.354-0.821-2.834-0.421-4.329c0.088-0.066,0.18-0.132,0.114-0.265
		c0.132-0.146,0.264-0.292,0.396-0.438c-0.146,3.255,1.647,5.704,3.445,8.121c2.029,2.727,4.078,5.444,6.24,8.066
		c1.888,2.288,4.217,4.116,6.699,5.74c4.056,2.655,8.322,4.895,12.966,6.312c3.059,0.935,6.181,1.669,9.263,2.529
		c1.823,0.509,3.625,1.088,5.71,1.719c-0.525-1.276-0.93-2.426-1.459-3.515c-1.007-2.068-2.663-3.65-4.146-5.363
		c-2.04-2.355-4.043-4.742-6.055-7.123c-0.155-0.182-0.244-0.418-0.364-0.629c0.049-0.057,0.095-0.114,0.143-0.172
		c0.827,0.547,1.667,1.073,2.478,1.643c1.114,0.78,2.222,1.573,3.305,2.396c4.762,3.611,7.837,8.266,9.267,14.133
		c1.057,4.336,1.532,8.677,1.311,13.103c-0.106,2.115-0.485,4.216-0.61,6.33c-0.099,1.669-0.021,3.35,0.025,5.023
		c0.018,0.672,0.027,1.399,0.284,1.999C110.238,125.937,110.813,126.608,111.283,127.324z"/>
	<path fill="#78C261" d="M61.009,65.287c-0.038,0.088-0.076,0.176-0.114,0.265C60.934,65.464,60.972,65.376,61.009,65.287z"/>
	<path fill="#5F4130" d="M156.655,154.292c-0.058-0.062-0.116-0.123-0.174-0.185C156.54,154.169,156.598,154.231,156.655,154.292z"
		/>
</g>
<g>
	<path fill="#FFFFFF" d="M83.899,134.918c0.269,2.488,0.585,4.969,0.795,7.462c0.333,3.941,0.636,7.887,0.873,11.838
		c0.317,5.282,0.566,10.567,0.829,15.854c0.03,0.585,0.001,1.174-0.066,1.756c-0.035,0.31-0.144,0.782-0.343,0.857
		c-0.256,0.097-0.7-0.043-0.951-0.232c-0.959-0.72-1.471-1.722-1.539-2.919c-0.246-4.384-0.462-8.769-0.714-13.15
		c-0.365-6.337-0.753-12.674-1.125-19.011c-0.199-3.405-0.399-6.812-0.553-10.217c-0.017-0.365,0.268-0.742,0.412-1.115
		c0.249,0.204,0.596,0.355,0.732,0.618c5.931,11.434,14.194,21.297,21.412,31.861c0.725,1.059,1.459,2.109,2.407,3.473
		c0-0.706-0.007-1.072,0.003-1.44c0.164-8.823,0.315-17.645,0.518-26.468c0.045-1.995,0.238-3.989,0.452-5.979
		c0.041-0.402,0.462-0.764,0.711-1.145c0.216,0.408,0.611,0.812,0.625,1.229c0.188,5.997,0.391,11.995,0.453,17.994
		c0.074,7.414,0.022,14.826,0.018,22.241c0,1.731-0.31,3.397-1.204,5.106c-1.168-1.115-1.52-2.42-1.56-3.767
		c-0.035-1.283-0.354-2.301-1.122-3.407c-5.302-7.619-10.52-15.303-15.687-23.017c-1.719-2.566-3.213-5.286-4.811-7.934
		c-0.115-0.189-0.233-0.378-0.35-0.565C84.041,134.868,83.97,134.895,83.899,134.918z"/>
	<path fill="#FFFFFF" d="M-15.851,149.138c-5.91,1.998-11.873,1.152-17.794,1.058c-0.272-0.005-0.543,0-0.961,0
		c-0.023,0.434-0.066,0.846-0.061,1.259c0.074,5.485,0.168,10.974,0.225,16.461c0.006,0.731-0.064,1.495-0.277,2.191
		c-0.3,0.98-1.16,1.321-1.92,0.654c-0.617-0.543-1.27-1.414-1.314-2.174c-0.245-4.145-0.43-8.302-0.405-12.454
		c0.05-8.193,0.23-16.383,0.408-24.575c0.039-1.681,0.293-3.354,0.468-5.027c0.083-0.8,0.205-1.694,1.245-1.69
		c1.078,0.005,1.127,0.963,1.177,1.729c0.153,2.385,0.304,4.773,0.343,7.162c0.063,3.92,0.037,7.842,0.05,11.762
		c0.001,0.427,0,0.852,0,1.367c6.289,0.197,12.484-0.927,18.817-0.066c0.055-0.57,0.137-1.137,0.162-1.703
		c0.235-5.837,0.458-11.672,0.694-17.508c0.019-0.47,0.036-0.964,0.2-1.39c0.117-0.304,0.477-0.514,0.728-0.766
		c0.21,0.252,0.564,0.483,0.606,0.76c0.176,1.16,0.343,2.336,0.364,3.506c0.152,8.778,0.286,17.558,0.386,26.338
		c0.038,3.411,0.015,6.823-0.079,10.233c-0.024,0.86-0.298,1.774-0.682,2.552c-0.497,1.009-1.377,1.004-1.808-0.047
		c-0.417-1.02-0.691-2.174-0.697-3.271c-0.023-5.019,0.072-10.035,0.125-15.053C-15.847,150.024-15.851,149.602-15.851,149.138z"/>
	<path fill="#FFFFFF" d="M203.372,144.885c0.465,3.35,0.936,6.556,1.345,9.769c0.558,4.388,1.07,8.78,1.601,13.17
		c0.081,0.699,0.305,1.423,0.194,2.088c-0.088,0.516-0.6,1.342-0.923,1.343c-0.513,0-1.355-0.475-1.484-0.918
		c-0.413-1.414-0.667-2.898-0.807-4.37c-0.636-6.822-1.208-13.649-1.81-20.516c-0.263,0-0.593,0-0.986,0
		c-0.063-1.25,0.815-1.858,1.655-2.209c3.4-1.413,6.9-1.72,10.419-0.438c2.997,1.093,4.717,3.331,5.22,6.414
		c0.53,3.243-0.348,6.062-3.015,8.171c-0.332,0.262-0.679,0.503-1.13,0.838c2.521,2.282,5.027,4.461,7.416,6.761
		c0.817,0.786,1.375,1.856,1.989,2.836c0.192,0.304,0.181,0.734,0.293,1.244c-1.442,0.141-2.619-0.294-3.521-1.152
		c-2.918-2.781-5.755-5.642-8.812-8.656c-1.625,0.411-3.579,0.359-5.628-0.973c1.559-0.631,2.885-1.181,4.223-1.702
		c0.726-0.281,1.506-0.442,2.205-0.779c2.317-1.124,3.421-2.966,3.247-5.587c-0.152-2.291-1.443-4.126-3.722-4.934
		C208.729,144.358,206.05,144.455,203.372,144.885z"/>
	<path fill="#FFFFFF" d="M42.085,145.746c-2.531,3.248-7.116,7.515-8.455,7.599c0.023,0.332,0.046,0.662,0.069,0.988
		c-0.141,0.082-0.244,0.201-0.335,0.192c-1.454-0.131-2.725-0.673-3.759-1.723c-1.808-1.839-3.613-3.682-5.666-5.405
		c0.175,1.598,0.357,3.197,0.529,4.797c0.527,4.943,1.05,9.888,1.575,14.831c0.083,0.777,0.195,1.554,0.245,2.336
		c0.051,0.797-0.289,1.394-1.113,1.555c-0.817,0.163-1.437-0.252-1.649-0.993c-0.256-0.895-0.401-1.838-0.464-2.77
		c-0.356-5.316-0.683-10.638-0.997-15.956c-0.123-2.074-0.237-4.148-0.253-6.225c-0.004-0.554,0.371-1.107,0.572-1.663
		c0.386,0.24,0.798,0.45,1.153,0.729c2.389,1.884,4.796,3.749,7.131,5.697c1.003,0.839,1.848,1.866,2.707,2.752
		c2.463-3.593,5.069-7.276,9.289-9.411c0.892-0.452,1.185-0.123,1.221,0.663c0.053,1.136,0.019,2.274,0.008,3.412
		c-0.071,6.902-0.141,13.801-0.225,20.704c-0.006,0.542,0.01,1.139-0.208,1.607c-0.183,0.395-0.721,0.913-1.047,0.877
		c-0.424-0.047-0.834-0.549-1.164-0.935c-0.148-0.172-0.132-0.525-0.121-0.794c0.286-7.166,0.582-14.329,0.877-21.495
		C42.025,146.658,42.059,146.204,42.085,145.746z"/>
	<path fill="#FFFFFF" d="M226.314,144.169c-0.075-0.021-0.252-0.027-0.356-0.118c-0.358-0.296-0.692-0.625-1.035-0.941
		c0.356-0.306,0.68-0.816,1.075-0.882c2.312-0.374,4.641-0.686,6.972-0.943c1.789-0.195,3.589-0.325,5.39-0.399
		c1.045-0.045,2.119-0.014,3.144,0.17c0.569,0.103,1.16,0.498,1.574,0.926c0.854,0.884,0.596,1.64-0.619,1.774
		c-1.633,0.178-3.283,0.27-4.925,0.295c-3.13,0.043-6.261,0.01-9.373,0.01c0.291,3.719,0.557,7.104,0.837,10.688
		c2.688-0.72,5.197,0.001,7.978,0.84c-2.646,0.959-5.069,1.707-7.88,0.977c0.299,3.764,0.588,7.369,0.881,11.013
		c2.004-0.347,3.905-0.814,5.832-0.973c2.366-0.197,4.754-0.137,7.132-0.181c0.156-0.005,0.355-0.019,0.459,0.066
		c0.581,0.468,1.14,0.964,1.705,1.448c-0.533,0.471-1.003,1.067-1.62,1.379c-0.565,0.286-1.284,0.342-1.941,0.372
		c-4.113,0.185-8.221,0.356-12.334,0.486c-1.822,0.056-2.046-0.104-2.172-1.938c-0.409-6.053-0.811-12.11-1.086-18.171
		C225.861,148.164,226.174,146.245,226.314,144.169z"/>
	<path fill="#FFFFFF" d="M73.308,171.542c-3.973-3.652-5.328-8.757-7.274-13.47c-2.263,0-4.47,0.043-6.673-0.015
		c-1.289-0.034-2.577-0.192-3.859-0.359c-0.697-0.092-1.038,0.159-1.351,0.774c-1.579,3.104-3.195,6.19-4.838,9.263
		c-0.366,0.685-0.833,1.335-1.355,1.906c-0.228,0.25-0.715,0.259-1.084,0.379c-0.024-0.361-0.145-0.748-0.05-1.073
		c0.152-0.519,0.451-0.997,0.682-1.493c3.121-6.699,6.201-13.419,9.388-20.091c0.856-1.79,2.021-3.436,3.068-5.128
		c0.2-0.327,0.475-0.657,0.796-0.848c0.665-0.391,1.617-0.302,1.623,0.44c0.018,1.968,1.494,3.218,2.079,4.9
		c1.514,4.353,3.251,8.629,4.888,12.94c1.305,3.432,2.599,6.871,3.886,10.312c0.172,0.461,0.279,0.951,0.417,1.427
		C73.536,171.452,73.423,171.497,73.308,171.542z M64.872,154.88c-1.195-3.434-2.35-6.75-3.504-10.066
		c-0.138-0.014-0.278-0.026-0.417-0.04c-1.759,3.526-3.516,7.054-5.346,10.721C58.833,155.28,61.792,155.085,64.872,154.88z"/>
	<path fill="#FFFFFF" d="M138.981,171.548c-3.978-3.645-5.331-8.744-7.277-13.471c-2.251,0-4.456,0.04-6.656-0.015
		c-1.21-0.033-2.423-0.18-3.623-0.355c-0.858-0.123-1.311,0.149-1.712,0.952c-1.601,3.18-3.274,6.323-4.964,9.459
		c-0.348,0.643-0.853,1.217-1.357,1.756c-0.157,0.167-0.639,0.238-0.809,0.12c-0.171-0.12-0.258-0.571-0.175-0.805
		c0.248-0.694,0.595-1.357,0.909-2.033c3.155-6.771,6.273-13.56,9.495-20.298c0.805-1.684,1.93-3.218,2.936-4.801
		c0.401-0.624,0.964-1.112,1.769-0.795c0.717,0.284,0.803,0.885,0.571,1.571c-0.04,0.118,0.005,0.316,0.086,0.413
		c1.935,2.323,2.538,5.26,3.601,7.97c2.438,6.222,4.757,12.489,7.114,18.74c0.176,0.462,0.286,0.949,0.425,1.428
		C139.204,171.439,139.095,171.492,138.981,171.548z M121.258,155.5c3.246-0.22,6.225-0.418,9.275-0.624
		c-1.189-3.419-2.345-6.742-3.5-10.064c-0.133-0.015-0.27-0.031-0.404-0.046C124.873,148.275,123.116,151.788,121.258,155.5z"/>
	<path fill="#FFFFFF" d="M192.84,167.092c-0.234,0.408-0.467,0.812-0.699,1.214c-2.494,4.304-7.824,4.927-11.205,1.247
		c-2.406-2.624-3.533-5.898-4.201-9.304c-1.05-5.348-1.103-10.745-0.484-16.15c0.013-0.116,0.004-0.255,0.065-0.344
		c0.343-0.504,0.694-1.405,1.056-1.41c0.95-0.015,0.702,0.929,0.727,1.548c0.202,5.4,0.237,10.815,1.401,16.13
		c0.548,2.502,1.388,4.899,2.908,6.99c1.878,2.575,4.455,2.939,6.879,0.869c4.312-3.68,3.504-2.705,3.279-7.627
		c-0.231-5.029-0.017-10.03,0.65-15.015c0.071-0.536,0.241-1.077,0.471-1.567c0.104-0.216,0.467-0.31,0.715-0.462
		c0.128,0.217,0.295,0.421,0.378,0.655c0.061,0.174,0.006,0.386,0.014,0.583c0.236,6.813,0.484,13.628,0.708,20.441
		c0.05,1.515,0.04,3.033-0.011,4.548c-0.012,0.274-0.302,0.646-0.559,0.769c-0.139,0.067-0.579-0.244-0.718-0.482
		C193.73,168.9,193.322,168.033,192.84,167.092z"/>
	<path fill="#FFFFFF" d="M11.628,167.526c-0.244,0.431-0.485,0.862-0.733,1.29c-2.46,4.236-7.754,4.86-11.135,1.262
		c-2.184-2.322-3.302-5.227-4.002-8.257c-1.325-5.746-1.383-11.571-0.71-17.411c0.013-0.117,0.018-0.255,0.082-0.341
		c0.342-0.45,0.703-0.889,1.056-1.331c0.23,0.476,0.621,0.94,0.664,1.435c0.425,5.029,0.692,10.077,1.215,15.096
		c0.298,2.854,1.3,5.561,2.943,7.96c1.974,2.881,4.485,3.223,7.189,1.04c3.385-2.734,3.488-3.029,3.18-7.352
		c-0.36-5.065-0.068-10.107,0.605-15.133c0.082-0.609,0.31-1.211,0.559-1.776c0.075-0.172,0.447-0.298,0.674-0.283
		c0.124,0.006,0.269,0.332,0.334,0.537c0.057,0.18,0.011,0.387,0.017,0.584c0.16,5.956,0.298,11.914,0.497,17.867
		c0.055,1.643,0.338,3.273,0.433,4.914c0.042,0.73-0.082,1.481-0.212,2.208c-0.055,0.309-0.319,0.578-0.489,0.866
		c-0.307-0.21-0.727-0.348-0.9-0.637C12.442,169.304,12.095,168.483,11.628,167.526z"/>
	<path fill="#FFFFFF" d="M172.161,142.495c-5.083,2.089-10.229,0.994-15.313,1.327c0.132,3.374,0.163,6.698,0.409,10.005
		c0.385,5.149,0.92,10.288,1.377,15.435c0.03,0.31,0.088,0.68-0.049,0.922c-0.244,0.434-0.591,1.057-0.96,1.105
		c-0.4,0.054-1.078-0.356-1.273-0.749c-0.337-0.677-0.479-1.482-0.558-2.251c-0.766-7.533-1.195-15.073-0.274-22.627
		c0.072-0.61,0.181-1.215,0.308-2.043c-1.392,0-2.639,0.045-3.881-0.012c-3.13-0.133-6.257-0.312-9.384-0.479
		c-0.232-0.014-0.505-0.009-0.684-0.128c-0.329-0.218-0.599-0.521-0.895-0.787c0.307-0.255,0.591-0.696,0.916-0.732
		c2.49-0.262,4.983-0.56,7.482-0.626c5.522-0.144,11.051-0.166,16.574-0.226C168.153,140.602,170.146,141.248,172.161,142.495z"/>
</g>
</svg>
