<?xml version="1.0" encoding="utf-8"?>
<!-- Generator: Adobe Illustrator 16.0.0, SVG Export Plug-In . SVG Version: 6.00 Build 0)  -->
<!DOCTYPE svg PUBLIC "-//W3C//DTD SVG 1.1//EN" "http://www.w3.org/Graphics/SVG/1.1/DTD/svg11.dtd">
<svg version="1.1" id="Layer_1" xmlns="http://www.w3.org/2000/svg" xmlns:xlink="http://www.w3.org/1999/xlink" x="0px" y="0px"
	 width="192.336px" height="156.132px" viewBox="0 0 192.336 156.132" enable-background="new 0 0 192.336 156.132"
	 xml:space="preserve">
<g>
	<path fill="#F5BA98" d="M69.959,96.087c0.049-1.332,0.918-2.248,1.823-2.979c1.763-1.424,3.772-2.344,6.146-2.231
		c0.977,0.045,1.961-0.076,2.941-0.121c2.489-0.192,4.652,0.816,6.863,1.76c6.957,2.964,13.054,7.376,19.368,11.42
		c1.484,0.949,3.156,1.307,4.773,1.842c4,1.325,8.087,2.361,12.115,3.598c1.726,0.529,3.549,0.735,5.354,0.787
		c3.373,0.094,6.677,0.648,9.976,1.279c6.363,1.217,12.731,2.387,19,4.055c4.15,1.104,8.164,2.588,12.168,4.116
		c0.322,0.124,0.615,0.3,0.884,0.517l-0.017-0.014c0.055,0.088,0.138,0.15,0.207,0.223c4.053,2.246,7.778,4.957,11.32,7.93
		c0.943,0.791,1.883,1.59,2.816,2.393c2.701,2.314,3.181,5.455,2.607,8.621c-0.609,3.377-1.496,6.754-3.24,9.795
		c-0.336,0.586-0.699,1.209-1.203,1.637c-0.844,0.722-1.258,1.761-2.356,2.356c-1.752,0.952-3.479,1.347-5.437,1.261
		c-2.293-0.101-4.594-0.074-6.889-0.019c-3.332,0.083-6.664,0.392-9.992,0.338c-5.674-0.092-11.348-0.358-17.02-0.61
		c-4.848-0.215-9.688-0.639-14.537-0.725c-2.683-0.047-5.373,0.426-8.062,0.637c-1.601,0.127-3.203,0.24-4.809,0.297
		c-2.838,0.102-5.681,0.109-8.519,0.239c-3.275,0.151-6.554,0.616-9.819,0.54c-4.357-0.102-8.78-0.096-12.933-1.766
		c-0.931-0.375-1.757-1.008-2.635-1.516c-0.52-0.301-1.047-0.588-1.572-0.879c-1.287-0.716-2.551-1.48-3.87-2.132
		c-1.609-0.796-3.275-1.479-4.902-2.241c-2.208-1.035-4.371-2.175-6.612-3.131c-1.863-0.796-3.823-1.361-5.718-2.09
		c-1.154-0.443-2.26-1.016-3.399-1.499c-0.483-0.206-1.025-0.28-1.497-0.508c-2.493-1.2-4.545-2.974-6.385-5.011
		c-1.424-1.576-2.844-3.092-4.68-4.287c-1.582-1.028-2.771-2.664-4.128-4.035c-0.769-0.773-1.522-1.562-2.294-2.335
		c-1.067-1.069-2.145-2.13-3.217-3.193c-0.821-0.813-1.623-1.647-2.466-2.438c-1.928-1.812-3.844-3.639-5.823-5.393
		c-1.634-1.445-3.357-2.789-5.03-4.193c-1.749-1.467-3.237-3.15-4.577-5.018c-1.976-2.75-4.072-5.422-6.256-8.009
		c-1.299-1.539-2.904-2.815-4.298-4.28c-0.904-0.951-1.72-1.998-2.474-3.072c-0.167-0.237,0.059-0.785,0.166-1.174
		c0.293-1.054,0.643-2.082,1.781-2.551c0.299-0.123,0.591-0.312,0.901-0.352c1.201-0.15,2.407-0.319,3.615-0.346
		c0.757-0.018,1.53,0.354,2.276,0.297c2.299-0.181,4.277,0.688,6.263,1.647c0.86,0.416,1.782,0.704,2.68,1.044
		c1.37,0.52,2.781,0.953,4.103,1.575c0.935,0.438,1.741,1.146,2.62,1.708c0.845,0.541,1.735,1.013,2.558,1.585
		c0.805,0.562,1.552,1.207,2.318,1.821c1.717,1.375,3.467,2.715,5.132,4.15c0.896,0.771,1.614,1.747,2.474,2.566
		c0.419,0.398,1.064,0.57,1.46,0.986c1.193,1.256,2.742,1.787,4.313,2.306c0.188,0.062,0.35,0.196,0.525,0.293
		c1.369,0.741,2.758,1.448,4.102,2.231c1.314,0.768,2.573,1.627,3.875,2.416c0.521,0.314,1.092,0.549,1.641,0.82
		c1.741,0.574,3.248,1.602,4.771,2.566c3.779,2.398,7.731,4.326,12.084,5.529c3.37,0.93,6.707,1.941,10.176,2.42
		c1.319,0.183,2.644,0.321,3.984,0.334c3.485,0.031,6.975-0.193,10.387,0.19c0.137-0.112,0.158-0.198,0.091-0.235
		c-2.1-1.156-3.362-3.25-5.224-4.67c-1.604-1.226-3.161-2.508-4.712-3.795c-3.028-2.513-5.798-5.32-8.852-7.809
		c-1.537-1.252-3.153-2.414-4.605-3.762c-0.815-0.756-1.492-1.68-1.905-2.744C70.506,96.666,70.363,96.289,69.959,96.087z"/>
	<path fill="#78C261" d="M56.748,12.521c1.963-1.489,4.346-1.93,6.646-2.23c9.673-1.262,18.948-0.3,27.574,4.864
		c6.584,3.942,11.718,9.173,15.597,15.725c1.217,2.053,2.469,4.084,3.769,6.232c0.681-2.164,1.25-4.196,1.956-6.18
		c3.229-9.069,8.734-16.458,16.788-21.747c7.751-5.092,16.289-7.934,25.662-7.909c2.924,0.007,4.346,1.552,3.829,4.345
		c-0.852,4.61-1.437,9.313-2.789,13.778c-3.161,10.427-8.782,19.316-17.877,25.647c-4.271,2.974-8.863,5.337-14.162,5.975
		c-1.084,0.13-2.143,0.467-3.219,0.671c-0.543,0.103-0.815,0.307-0.845,0.925c-0.25,5.593-0.112,11.163,0.739,16.71
		c0.516,3.35,0.913,6.718,1.377,10.077c0.207,1.506,0.447,3.006,0.673,4.508c0.438,2.504-0.832,3.643-3.161,4.172
		c-0.744,0.168-1.555,0.104-2.328-0.043c-1.547-0.789-2.062-2.188-2.242-3.789c-0.447-3.94-0.084-7.848,0.315-11.776
		c0.571-5.606,0.604-11.242-0.753-16.754c-0.791-3.215-1.49-6.498-3.113-9.445c-2.062-3.737-4.771-6.939-8.182-9.511
		c-2.154-1.625-4.391-3.142-6.63-4.663c1.349,1.845,2.885,3.528,4.276,5.323c1.539,1.982,3.31,3.747,4.98,5.604
		c2.021,2.247,3.526,4.794,4.424,7.688c0.098,0.315,0.61,0.926,0.28,1.207c-0.269,0.228-0.927-0.127-1.216-0.231
		c-5.328-1.928-10.926-2.903-16.316-4.612c-6.79-2.152-13.001-5.414-18.794-9.552c-3.895-2.781-6.758-6.482-9.612-10.208
		c-2.104-2.746-4.316-5.413-6.098-8.396c-0.871-1.459-1.518-2.988-1.729-4.688C56.495,13.646,56.503,13.073,56.748,12.521z"/>
	<path fill="#5F4130" d="M116.871,87.83c1.453,0.014,2.93,0.262,4.224-0.754c0.669-0.525,1.296-0.969,1.144-1.976
		c-0.057-0.376,0.145-0.792,0.229-1.188c4.492,0.553,8.947,1.168,12.756,3.979c4.398,3.246,8.808,6.484,13.312,9.583
		c4.5,3.094,8.616,6.61,12.401,10.526c2.489,2.578,5.004,5.138,7.385,7.814c1.162,1.309,2.044,2.867,3.053,4.312
		c-0.96-0.33-1.936-0.621-2.878-0.996c-8.058-3.189-16.466-5.045-24.956-6.594c-3.23-0.59-6.459-1.184-9.694-1.744
		c-0.907-0.158-1.837-0.303-2.754-0.289c-4.103,0.057-7.972-1.076-11.838-2.231c-3.501-1.048-6.999-2.103-10.487-3.188
		c-0.543-0.168-1.053-0.487-1.541-0.795c-4.613-2.891-9.127-5.953-13.858-8.636c-3.073-1.741-6.443-2.97-9.718-4.34
		c-0.854-0.356-1.847-0.382-2.775-0.56c3.611-1.514,7.164-3.197,10.856-4.479c2.521-0.875,5.212-1.406,7.871-1.697
		c3.799-0.416,7.637-0.472,11.457-0.682c0.057,0.04,0.135,0.083,0.139,0.141c0.205,2.465,2.287,2.734,4.008,3.396
		C115.729,87.634,116.333,87.609,116.871,87.83z"/>
	<path fill="#5F4130" d="M69.959,96.087c0.187-0.059,0.373-0.115,0.384-0.119c0.729,1.23,1.264,2.52,2.138,3.508
		c0.89,1.006,2.14,1.684,3.184,2.562c2.326,1.959,4.614,3.965,6.935,5.932c2.429,2.059,4.896,4.07,7.308,6.148
		c1.104,0.951,2.083,2.045,3.167,3.018c1.144,1.025,2.346,1.986,3.67,3.099c-0.462,0.028-0.748,0.065-1.034,0.06
		c-2.842-0.062-5.687-0.237-8.524-0.174c-4.926,0.111-9.613-1.031-14.347-2.199c-6.646-1.643-12.287-5.254-18.078-8.612
		c-0.114-0.067-0.199-0.185-0.298-0.278c0.34-0.58,0.596-1.236,1.035-1.729c3.241-3.631,7.171-6.434,11.167-9.146
		C67.736,97.427,68.859,96.775,69.959,96.087z"/>
	<path fill="#259145" d="M116.871,87.83c-1.885,0.166-3.432-0.707-4.993-1.582c-1.009-0.564-0.756-1.496-0.823-2.351
		c0.041-0.372,0.098-0.743,0.119-1.116c0.174-2.861,0.354-5.723,0.499-8.586c0.06-1.162,0.072-2.329,0.048-3.492
		c-0.055-2.672-0.037-5.352-0.255-8.012c-0.183-2.243-0.633-4.466-1.028-6.686c-0.041-0.229-0.498-0.47-0.806-0.556
		c-7.08-1.969-14.278-3.586-21.22-5.956c-7.87-2.687-14.639-7.318-20.415-13.401c-2.316-2.44-4.812-4.705-6.412-7.705
		c-1.721-3.229-3.377-6.495-4.944-9.8c-0.774-1.632-0.989-3.416-0.507-5.218c0.106-0.08,0.217-0.159,0.137-0.319
		c0.159-0.176,0.318-0.353,0.478-0.529c-0.177,3.924,1.986,6.875,4.153,9.789c2.446,3.287,4.916,6.563,7.522,9.723
		c2.275,2.758,5.083,4.962,8.075,6.92c4.889,3.2,10.031,5.899,15.63,7.609c3.688,1.126,7.449,2.011,11.165,3.048
		c2.197,0.613,4.37,1.312,6.883,2.072c-0.633-1.539-1.12-2.924-1.759-4.236c-1.213-2.494-3.21-4.4-4.998-6.465
		c-2.459-2.839-4.874-5.717-7.299-8.586c-0.186-0.219-0.294-0.504-0.438-0.758c0.058-0.069,0.114-0.138,0.172-0.207
		c0.997,0.658,2.009,1.293,2.986,1.979c1.343,0.941,2.679,1.897,3.983,2.888c5.74,4.353,9.447,9.964,11.17,17.036
		c1.273,5.227,1.847,10.459,1.58,15.794c-0.129,2.549-0.585,5.081-0.736,7.63c-0.118,2.011-0.025,4.038,0.031,6.054
		c0.021,0.812,0.033,1.688,0.343,2.411C115.611,86.158,116.305,86.966,116.871,87.83z"/>
	<path fill="#78C261" d="M56.271,13.05c-0.045,0.106-0.091,0.212-0.137,0.319C56.18,13.263,56.226,13.157,56.271,13.05z"/>
	<path fill="#5F4130" d="M171.562,120.337c-0.069-0.074-0.14-0.148-0.209-0.223C171.424,120.189,171.493,120.263,171.562,120.337z"
		/>
</g>
</svg>
